<?xml version="1.0" encoding="UTF-8" standalone="no"?>
<svg
   xmlns:dc="http://purl.org/dc/elements/1.1/"
   xmlns:cc="http://creativecommons.org/ns#"
   xmlns:rdf="http://www.w3.org/1999/02/22-rdf-syntax-ns#"
   xmlns:svg="http://www.w3.org/2000/svg"
   xmlns="http://www.w3.org/2000/svg"
   xmlns:sodipodi="http://sodipodi.sourceforge.net/DTD/sodipodi-0.dtd"
   xmlns:inkscape="http://www.inkscape.org/namespaces/inkscape"
   width="140.75832mm"
   height="120.79745mm"
   viewBox="0 0 140.75832 120.79746"
   version="1.1"
   id="svg8"
   inkscape:version="1.0.1 (0767f8302a, 2020-10-17)"
   sodipodi:docname="update.svg">
  <defs
     id="defs2" />
  <sodipodi:namedview
     id="base"
     pagecolor="#ffffff"
     bordercolor="#666666"
     borderopacity="1.0"
     inkscape:pageopacity="0.0"
     inkscape:pageshadow="2"
     inkscape:zoom="1"
     inkscape:cx="-68.905095"
     inkscape:cy="-30.882552"
     inkscape:document-units="mm"
     inkscape:current-layer="layer1"
     inkscape:document-rotation="0"
     showgrid="false"
     inkscape:window-width="1853"
     inkscape:window-height="1145"
     inkscape:window-x="67"
     inkscape:window-y="27"
     inkscape:window-maximized="1" />
  <metadata
     id="metadata5">
    <rdf:RDF>
      <cc:Work
         rdf:about="">
        <dc:format>image/svg+xml</dc:format>
        <dc:type
           rdf:resource="http://purl.org/dc/dcmitype/StillImage" />
        <dc:title></dc:title>
      </cc:Work>
    </rdf:RDF>
  </metadata>
  <g
     inkscape:label="Layer 1"
     inkscape:groupmode="layer"
     id="layer1"
     transform="translate(-421.87484,186.03721)">
    <path
       style="fill:#000000;stroke-width:0.352778"
       id="path3052"
       d="" />
    <path
       style="fill:#000000;stroke-width:0.352778"
       id="path3050"
       d="" />
    <path
       style="fill:#000000;stroke-width:0.352778"
       id="path3048"
       d="" />
    <path
       style="fill:#64a420;fill-opacity:1;stroke-width:0.352778"
       d="m 488.19706,-65.471019 c -7.52868,-0.93721 -14.12987,-2.84427 -20.28809,-5.86112 -14.11899,-6.91677 -25.42103,-19.7546 -30.34435,-34.467731 -1.25678,-3.75582 -2.62143,-9.54771 -2.63148,-11.16858 -0.003,-0.49041 -0.25265,-1.24447 -0.55469,-1.6757 -0.52796,-0.75376 -0.76375,-0.78405 -6.10306,-0.78405 -3.84932,0 -5.68381,-0.12993 -5.97722,-0.42333 -0.23283,-0.23284 -0.42333,-1.0769 -0.42333,-1.87571 0,-1.43818 0.11337,-1.56503 11.60349,-12.98222 9.77302,-9.71099 11.76165,-11.52985 12.60601,-11.52985 0.84653,0 2.85603,1.8535 12.91457,11.91204 8.53664,8.53665 11.91204,12.13532 11.91204,12.7 0,0.43338 -0.3175,1.10546 -0.70556,1.49352 -0.6355,0.6355 -1.17592,0.70555 -5.44285,0.70555 -6.30934,0 -6.46209,0.14108 -5.14379,4.75094 3.38945,11.8523 13.69483,21.720641 26.01624,24.912931 3.61424,0.9364 10.46182,1.27201 14.09054,0.6906 6.99137,-1.12018 13.21182,-3.99627 18.58342,-8.59224 l 2.06606,-1.76773 7.89991,7.92209 c 4.90154,4.91531 7.89991,8.18381 7.89991,8.61165 0,1.01836 -4.38825,5.00421 -8.55259,7.76832 -6.63904,4.40671 -14.67069,7.63698 -22.31546,8.97511 -4.84685,0.848387 -13.13411,1.180418 -17.10972,0.68551 z m 40.38778,-54.686491 c -6.20599,-5.65766 -11.40025,-10.46712 -11.5428,-10.6877 -0.45559,-0.70496 -0.28922,-1.86179 0.3511,-2.44127 0.46284,-0.41886 1.76409,-0.62559 5.10683,-0.81131 5.74226,-0.31905 5.92238,-0.45914 5.05213,-3.92924 -4.23611,-16.89125 -20.16289,-27.99632 -37.09533,-25.86503 -6.73859,0.84819 -12.48131,3.33765 -18.03836,7.81961 -1.65355,1.33364 -3.30574,2.42481 -3.67154,2.42481 -0.79845,0 -14.69759,-12.44481 -15.09302,-13.51377 -0.45945,-1.24201 -0.0441,-1.95023 2.45754,-4.18996 6.02472,-5.39408 13.29129,-9.67788 20.51905,-12.09644 6.30623,-2.1102 11.22195,-2.75436 19.49784,-2.55504 7.71149,0.18573 9.86137,0.53154 16.01992,2.57677 11.76776,3.90805 22.26927,11.90794 29.08698,22.15802 4.01546,6.03703 7.3282,14.1513 8.51208,20.84958 0.30864,1.74625 0.64421,3.55494 0.74572,4.01931 l 0.18456,0.84431 5.252,-0.18615 c 5.91293,-0.20959 6.70362,0.0106 6.70362,1.86706 0,0.8641 -1.71786,2.9288 -10.32984,12.41541 -8.676,9.55714 -10.49835,11.39566 -11.38235,11.48331 -0.939,0.0931 -2.26934,-1.00495 -12.33613,-10.18228 z"
       id="path4442" />
  </g>
</svg>
