<?xml version="1.0" encoding="UTF-8" standalone="no"?>
<svg
   xmlns:dc="http://purl.org/dc/elements/1.1/"
   xmlns:cc="http://creativecommons.org/ns#"
   xmlns:rdf="http://www.w3.org/1999/02/22-rdf-syntax-ns#"
   xmlns:svg="http://www.w3.org/2000/svg"
   xmlns="http://www.w3.org/2000/svg"
   xmlns:sodipodi="http://sodipodi.sourceforge.net/DTD/sodipodi-0.dtd"
   xmlns:inkscape="http://www.inkscape.org/namespaces/inkscape"
   width="139.84621mm"
   height="83.341911mm"
   viewBox="0 0 139.84619 83.341919"
   version="1.1"
   id="svg8"
   inkscape:version="1.0.1 (0767f8302a, 2020-10-17)"
   sodipodi:docname="show.svg">
  <defs
     id="defs2" />
  <sodipodi:namedview
     id="base"
     pagecolor="#ffffff"
     bordercolor="#666666"
     borderopacity="1.0"
     inkscape:pageopacity="0.0"
     inkscape:pageshadow="2"
     inkscape:zoom="0.70710678"
     inkscape:cx="-133.89994"
     inkscape:cy="193.23903"
     inkscape:document-units="mm"
     inkscape:current-layer="layer1"
     inkscape:document-rotation="0"
     showgrid="false"
     inkscape:window-width="1853"
     inkscape:window-height="1145"
     inkscape:window-x="67"
     inkscape:window-y="27"
     inkscape:window-maximized="1" />
  <metadata
     id="metadata5">
    <rdf:RDF>
      <cc:Work
         rdf:about="">
        <dc:format>image/svg+xml</dc:format>
        <dc:type
           rdf:resource="http://purl.org/dc/dcmitype/StillImage" />
        <dc:title></dc:title>
      </cc:Work>
    </rdf:RDF>
  </metadata>
  <g
     inkscape:label="Layer 1"
     inkscape:groupmode="layer"
     id="layer1"
     transform="translate(-241.4663,144.1582)">
    <path
       style="fill:#000000;stroke-width:0.352778"
       id="path3052"
       d="" />
    <path
       style="fill:#000000;stroke-width:0.352778"
       id="path3050"
       d="" />
    <path
       style="fill:#000000;stroke-width:0.352778"
       id="path3048"
       d="" />
    <path
       style="fill:#2064a4;fill-opacity:1;stroke-width:0.352778"
       d="m 302.24948,-60.886583 c -0.6791,-0.08133 -2.9016,-0.394339 -4.93889,-0.695572 -24.77509,-3.663248 -45.30519,-17.307456 -54.26179,-36.062141 -2.10647,-4.410854 -2.10792,-5.242774 -0.0168,-9.621174 4.99602,-10.46053 13.31007,-19.11184 24.99801,-26.01204 8.30188,-4.90118 18.03281,-8.26194 29.45694,-10.17352 6.00551,-1.00489 22.3038,-0.92257 28.39861,0.14344 13.83549,2.41988 25.93729,7.51047 36.15972,15.21049 7.48115,5.63515 14.42085,14.28294 17.78582,22.16348 l 1.4814,3.46935 -1.29373,3.090552 c -2.66692,6.370915 -6.59223,11.925489 -12.44139,17.605394 -7.92932,7.699865 -16.02476,12.568921 -27.48221,16.529356 -9.48184,3.277535 -15.39956,4.228377 -27.26239,4.380434 -5.14173,0.06591 -9.90423,0.05328 -10.58333,-0.02805 z m 15.98697,-13.019954 c 9.80177,-2.005877 18.50977,-9.948488 21.84288,-19.922993 1.39361,-5.711102 1.98537,-11.90791 0.32322,-17.28611 -3.12195,-9.96554 -10.41599,-17.30329 -20.33779,-20.45965 -3.49752,-1.11265 -10.24421,-1.37075 -14.3134,-0.54758 -7.87094,1.59224 -15.45883,6.85873 -19.52422,13.55108 -9.45647,15.56703 -2.94577,35.892457 13.77639,43.007822 2.37307,1.009755 6.18505,2.001064 8.94873,2.327126 1.87686,0.221435 6.59146,-0.118642 9.28419,-0.669695 z"
       id="path3998"
       sodipodi:nodetypes="csscssssscssssccsccssssss" />
  </g>
</svg>
