<?xml version="1.0" encoding="UTF-8" standalone="no"?>
<svg
   xmlns:dc="http://purl.org/dc/elements/1.1/"
   xmlns:cc="http://creativecommons.org/ns#"
   xmlns:rdf="http://www.w3.org/1999/02/22-rdf-syntax-ns#"
   xmlns:svg="http://www.w3.org/2000/svg"
   xmlns="http://www.w3.org/2000/svg"
   xmlns:sodipodi="http://sodipodi.sourceforge.net/DTD/sodipodi-0.dtd"
   xmlns:inkscape="http://www.inkscape.org/namespaces/inkscape"
   width="125.12663mm"
   height="139.644mm"
   viewBox="0 0 125.12663 139.64401"
   version="1.1"
   id="svg8"
   inkscape:version="1.0.1 (0767f8302a, 2020-10-17)"
   sodipodi:docname="upload.svg">
  <defs
     id="defs2" />
  <sodipodi:namedview
     id="base"
     pagecolor="#ffffff"
     bordercolor="#666666"
     borderopacity="1.0"
     inkscape:pageopacity="0.0"
     inkscape:pageshadow="2"
     inkscape:zoom="1"
     inkscape:cx="-106.45445"
     inkscape:cy="257.13171"
     inkscape:document-units="mm"
     inkscape:current-layer="layer1"
     inkscape:document-rotation="0"
     showgrid="false"
     inkscape:window-width="1853"
     inkscape:window-height="1145"
     inkscape:window-x="67"
     inkscape:window-y="27"
     inkscape:window-maximized="1" />
  <metadata
     id="metadata5">
    <rdf:RDF>
      <cc:Work
         rdf:about="">
        <dc:format>image/svg+xml</dc:format>
        <dc:type
           rdf:resource="http://purl.org/dc/dcmitype/StillImage" />
        <dc:title></dc:title>
      </cc:Work>
    </rdf:RDF>
  </metadata>
  <g
     inkscape:label="Layer 1"
     inkscape:groupmode="layer"
     id="layer1"
     transform="translate(-406.62023,262.47848)">
    <path
       style="fill:#000000;stroke-width:0.352778"
       id="path3052"
       d="" />
    <path
       style="fill:#000000;stroke-width:0.352778"
       id="path3050"
       d="" />
    <path
       style="fill:#000000;stroke-width:0.352778"
       id="path3048"
       d="" />
    <path
       style="fill:#64a420;fill-opacity:1;stroke-width:0.352778"
       d="m 434.29819,-124.89364 -0.0928,-38.12899 -0.0929,-38.12899 h -12.28992 c -12.66421,0 -14.13292,-0.17674 -14.87209,-1.42502 -0.20779,-0.3509 -0.60754,-1.77403 -0.0344,-2.45869 8.84584,-8.70561 20.21785,-20.1759 29.90821,-29.09236 16.62051,-15.29315 30.64189,-27.96531 31.15862,-28.16035 0.51672,-0.19504 1.35917,-0.24929 1.8721,-0.12055 1.09368,0.27449 60.85193,55.14329 61.58706,56.54797 0.38787,0.74112 0.40081,1.19587 0.0659,2.31388 -0.70407,2.34995 -0.99694,2.39512 -15.53031,2.39512 H 503.2663 l -0.008,38.01181 c -0.004,21.17722 -0.0787,33.70535 -0.0787,38.07122 0,2.07904 -0.56928,2.22511 -2.489,2.22511 -1.87918,0 -9.31211,0.009 -32.14438,0.009 h -31.9439 c -1.47938,0 -2.30419,-1.01712 -2.30419,-2.05868 z"
       id="path4526"
       sodipodi:nodetypes="cccssccssscsccccsccc" />
  </g>
</svg>
