<?xml version="1.0" encoding="UTF-8" standalone="no"?>
<svg
   xmlns:dc="http://purl.org/dc/elements/1.1/"
   xmlns:cc="http://creativecommons.org/ns#"
   xmlns:rdf="http://www.w3.org/1999/02/22-rdf-syntax-ns#"
   xmlns:svg="http://www.w3.org/2000/svg"
   xmlns="http://www.w3.org/2000/svg"
   xmlns:sodipodi="http://sodipodi.sourceforge.net/DTD/sodipodi-0.dtd"
   xmlns:inkscape="http://www.inkscape.org/namespaces/inkscape"
   width="131.58611mm"
   height="138.96521mm"
   viewBox="0 0 131.5861 138.96523"
   version="1.1"
   id="svg8"
   inkscape:version="1.0.1 (0767f8302a, 2020-10-17)"
   sodipodi:docname="movie.svg">
  <defs
     id="defs2" />
  <sodipodi:namedview
     id="base"
     pagecolor="#ffffff"
     bordercolor="#666666"
     borderopacity="1.0"
     inkscape:pageopacity="0.0"
     inkscape:pageshadow="2"
     inkscape:zoom="1"
     inkscape:cx="75.012753"
     inkscape:cy="361.72814"
     inkscape:document-units="mm"
     inkscape:current-layer="layer1"
     inkscape:document-rotation="0"
     showgrid="false"
     inkscape:window-width="1853"
     inkscape:window-height="1145"
     inkscape:window-x="67"
     inkscape:window-y="27"
     inkscape:window-maximized="1" />
  <metadata
     id="metadata5">
    <rdf:RDF>
      <cc:Work
         rdf:about="">
        <dc:format>image/svg+xml</dc:format>
        <dc:type
           rdf:resource="http://purl.org/dc/dcmitype/StillImage" />
        <dc:title></dc:title>
      </cc:Work>
    </rdf:RDF>
  </metadata>
  <g
     inkscape:label="Layer 1"
     inkscape:groupmode="layer"
     id="layer1"
     transform="translate(-535.45729,356.74789)">
    <path
       style="fill:#000000;stroke-width:0.352778"
       id="path3052"
       d="" />
    <path
       style="fill:#000000;stroke-width:0.352778"
       id="path3050"
       d="" />
    <path
       style="fill:#000000;stroke-width:0.352778"
       id="path3048"
       d="" />
    <path
       style="fill:#2064a4;fill-opacity:1;stroke-width:0.352778"
       d="m 541.01477,-218.29193 c -3.31869,-1.21887 -5.55748,-4.36294 -5.55748,-7.80475 0,-2.46811 0.94993,-3.62718 3.17555,-3.87466 2.67105,-0.29702 3.11787,-0.45734 4.39177,-1.57584 2.07311,-1.82022 2.13678,-4.92639 0.14279,-6.96589 -1.13992,-1.16594 -1.43565,-1.27931 -4.31482,-1.65412 -1.12508,-0.14646 -2.00971,-0.51363 -2.55764,-1.06156 -0.78299,-0.78299 -0.83756,-1.09766 -0.83633,-4.82244 10e-4,-3.32972 0.11452,-4.17044 0.68995,-5.11418 1.26246,-2.0705 2.30541,-2.35674 9.3629,-2.56972 6.96127,-0.21007 7.53014,-0.36056 9.5737,-2.53259 2.57813,-2.7402 2.40955,-0.81057 2.52024,-28.84751 0.0677,-17.16199 -0.0229,-25.79112 -0.28424,-27.0499 -0.49043,-2.36238 -1.97849,-4.4089 -4.12191,-5.66882 -1.6443,-0.96652 -1.86437,-0.99862 -8.04057,-1.17285 -6.62165,-0.1868 -7.11047,-0.2961 -8.64306,-1.93249 -0.84306,-0.90016 -0.88697,-1.16567 -0.99604,-6.02245 -0.1138,-5.06731 -0.11171,-5.08299 0.79179,-5.92032 0.63082,-0.58462 1.48359,-0.89918 2.80843,-1.03591 3.54872,-0.36626 5.50576,-2.16188 5.50839,-5.05406 0.003,-2.82266 -2.47584,-5.07759 -5.58206,-5.0787 -1.21633,-4.3e-4 -1.73594,-0.21005 -2.55764,-1.03175 -0.91472,-0.91472 -1.0312,-1.27467 -1.0312,-3.18672 0,-3.66335 1.91949,-6.49296 5.38752,-7.942 1.14322,-0.47766 8.11244,-0.53968 60.30601,-0.53663 l 59.01341,0.003 1.76645,0.8226 c 2.25862,1.05179 3.87916,2.90588 4.5684,5.22679 0.68485,2.30614 0.68785,3.57897 0.0115,4.88689 -0.65914,1.27463 -1.52127,1.75683 -3.14102,1.75683 -7.22551,0 -7.82062,9.20308 -0.65134,10.07255 3.80978,0.46204 4.32517,1.26421 4.32517,6.73188 0,3.12887 -0.12903,4.05323 -0.74274,5.32099 -1.18256,2.44284 -2.49696,2.9218 -8.0183,2.9218 -6.57635,0 -8.78508,0.9449 -10.82716,4.63188 l -1.0493,1.89451 -0.10411,24.50487 c -0.0652,15.3559 0.0295,25.36264 0.25359,26.80235 0.42026,2.69942 1.60791,4.60308 3.85913,6.1857 1.50589,1.05866 1.57107,1.06991 7.30746,1.26178 5.06746,0.16949 5.90641,0.282 6.73917,0.90374 2.06022,1.53818 2.39783,2.37857 2.50984,6.24751 0.0894,3.08886 0.006,3.74863 -0.59901,4.71614 -0.73946,1.18326 -2.3876,1.86805 -4.50497,1.87177 -2.25061,0.004 -4.57081,2.91846 -4.24674,5.33453 0.35916,2.67779 2.61975,4.54521 5.50214,4.54521 1.09344,0 1.71796,0.24813 2.59252,1.03004 1.04054,0.9303 1.15037,1.21636 1.13427,2.95446 -0.0328,3.53969 -2.70733,7.05816 -6.0765,7.99386 -0.88246,0.24508 -20.54681,0.35741 -59.87512,0.34204 -48.79062,-0.0191 -58.78162,-0.10388 -59.88279,-0.5083 z m 33.59382,-12.43 c 3.43969,-1.72817 3.74842,-6.56906 0.54519,-8.54876 -1.02554,-0.63382 -1.75191,-0.71111 -6.68273,-0.71111 -6.17653,0 -7.13452,0.25542 -8.3336,2.22198 -1.49414,2.45047 -0.68251,5.39972 1.92327,6.98871 1.55832,0.95025 10.6832,0.98602 12.54787,0.0492 z m 32.59107,0.13149 c 2.14528,-0.89636 2.97964,-1.93142 2.97964,-4.49957 0,-1.08394 -0.94683,-4.86592 -3.90355,-4.86592 l -4.89571,-0.0249 c -5.10097,0.001 -5.90557,0.0814 -6.9015,0.68871 -2.37156,1.44603 -3.073,3.9196 -1.79456,6.32836 1.32801,2.50216 2.36588,2.85938 8.30761,2.85938 3.4884,0 5.40293,-0.15 6.20807,-0.48641 z m 33.03813,-0.16767 c 3.45748,-1.83978 3.58738,-6.46737 0.23991,-8.54646 -1.02634,-0.63744 -1.65489,-0.69126 -7.0142,-0.60052 l -5.88683,0.0997 c -3.19206,0 -3.30965,5.36294 -1.75956,7.65313 1.23129,1.72919 2.38139,2.0191 8.07068,2.03445 4.32693,0.0117 5.31134,-0.0876 6.35,-0.64028 z m -17.16643,-23.46706 c 1.75874,-0.73485 3.61382,-2.5309 4.52515,-4.38116 l 0.81772,-1.66019 v -26.10556 -26.10555 l -1.05834,-1.91308 c -1.20081,-2.17062 -2.97149,-3.61333 -5.18658,-4.2259 -1.11177,-0.30745 -6.97389,-0.39151 -21.9773,-0.31515 l -20.46111,0.10413 -1.69057,0.99372 c -2.1123,1.24163 -3.61384,3.27834 -4.10486,5.5679 -0.24844,1.15844 -0.37818,10.14652 -0.37818,26.20004 0,27.19216 -0.0236,26.89288 2.32697,29.49469 0.67584,0.74809 1.8972,1.691 2.71411,2.09537 1.45481,0.72012 1.91468,0.73522 22.39872,0.7355 16.94643,2.2e-4 21.13361,-0.0917 22.07427,-0.48476 z m -48.05221,-80.5762 c 3.33275,-2.05976 3.10415,-6.86611 -0.41056,-8.63196 -1.59442,-0.80106 -10.29517,-0.89767 -12.08694,-0.13421 -2.52238,1.07478 -3.71898,3.5951 -2.87392,6.05319 1.04695,3.04538 2.8375,3.73768 9.32356,3.60484 4.22501,-0.0865 4.9077,-0.1872 6.04786,-0.89186 z m 32.65283,0.0593 c 1.80291,-1.33577 2.65652,-2.95295 2.46775,-4.67521 -0.20324,-1.85426 -1.11167,-3.18536 -2.74085,-4.0161 -0.98521,-0.50237 -2.14984,-0.61692 -6.2769,-0.61736 -5.99814,-6.4e-4 -7.28491,0.45767 -8.53497,3.03995 -1.00781,2.08185 -0.66232,3.78025 1.11677,5.48988 1.63621,1.57233 2.03081,1.64842 8.14736,1.57104 4.28107,-0.0542 4.94703,-0.1448 5.82084,-0.7922 z m 31.32558,0.57879 c 1.74675,-0.40319 3.57076,-2.29178 3.89798,-4.03599 0.32885,-1.75292 -0.99113,-4.34073 -2.65775,-5.21051 -1.71038,-0.89262 -10.73087,-0.94202 -12.57094,-0.0688 -1.40003,0.66435 -2.5198,2.09307 -2.82106,3.5994 -0.45917,2.29584 1.44291,5.14972 3.80456,5.70834 1.65765,0.3921 8.65915,0.39725 10.34721,0.008 z"
       id="path5527"
       sodipodi:nodetypes="csssssscsssccsssssccssssccssssssssscccssssccssssssccssssssscccccssccsssccssscscccssscsssssscsssscssssssscscsscsscc" />
  </g>
</svg>
