<?xml version="1.0" encoding="UTF-8" standalone="no"?>
<!-- Created with Inkscape (http://www.inkscape.org/) -->

<svg
   xmlns:dc="http://purl.org/dc/elements/1.1/"
   xmlns:cc="http://creativecommons.org/ns#"
   xmlns:rdf="http://www.w3.org/1999/02/22-rdf-syntax-ns#"
   xmlns:svg="http://www.w3.org/2000/svg"
   xmlns="http://www.w3.org/2000/svg"
   xmlns:sodipodi="http://sodipodi.sourceforge.net/DTD/sodipodi-0.dtd"
   xmlns:inkscape="http://www.inkscape.org/namespaces/inkscape"
   version="1.1"
   id="svg2"
   width="698.66669"
   height="698.66669"
   viewBox="0 0 698.66669 698.66669"
   sodipodi:docname="logo.svg"
   inkscape:version="0.92.5 (2060ec1f9f, 2020-04-08)">
  <metadata
     id="metadata8">
    <rdf:RDF>
      <cc:Work
         rdf:about="">
        <dc:format>image/svg+xml</dc:format>
        <dc:type
           rdf:resource="http://purl.org/dc/dcmitype/StillImage" />
        <dc:title></dc:title>
      </cc:Work>
    </rdf:RDF>
  </metadata>
  <defs
     id="defs6" />
  <sodipodi:namedview
     pagecolor="#ffffff"
     bordercolor="#666666"
     borderopacity="1"
     objecttolerance="10"
     gridtolerance="10"
     guidetolerance="10"
     inkscape:pageopacity="0"
     inkscape:pageshadow="2"
     inkscape:window-width="1848"
     inkscape:window-height="1016"
     id="namedview4"
     showgrid="false"
     inkscape:snap-center="true"
     inkscape:snap-object-midpoints="false"
     inkscape:zoom="0.35355339"
     inkscape:cx="1144.4914"
     inkscape:cy="-195.93953"
     inkscape:window-x="72"
     inkscape:window-y="27"
     inkscape:window-maximized="1"
     inkscape:current-layer="svg2" />
  <circle
     style="fill:#63a31f;fill-opacity:1;stroke:#63a31f;stroke-width:1.00157475;stroke-linecap:butt;stroke-linejoin:round;stroke-miterlimit:4;stroke-dasharray:none;stroke-opacity:1;paint-order:normal"
     id="path4643"
     cx="349.88821"
     cy="349.20129"
     r="340.15747" />
  <circle
     style="fill:#1f63a3;fill-opacity:1;stroke:#1f63a3;stroke-width:12.47244072;stroke-linecap:butt;stroke-linejoin:round;stroke-miterlimit:4;stroke-dasharray:none;stroke-opacity:1;paint-order:normal"
     id="path817"
     cx="349.88821"
     cy="349.20129"
     r="272.12598" />
  <path
     style="fill:#2064a4;fill-opacity:1;stroke:#1f63a3;stroke-width:1.00157475;stroke-linecap:butt;stroke-linejoin:miter;stroke-miterlimit:4;stroke-dasharray:none;stroke-opacity:1"
     d="M 210.98299,110.26546 C 239.09079,93.096249 303.53706,71.10248 348.86881,73.761069 L 347.81443,0.37913326 C 284.29397,1.3962084 227.58134,17.435149 175.00893,47.067788 Z"
     id="path4534"
     inkscape:connector-curvature="0"
     sodipodi:nodetypes="ccccc"
     inkscape:transform-center-x="87.949344"
     inkscape:transform-center-y="-293.87901" />
  <path
     style="fill:#2064a4;fill-opacity:1;stroke:#1f63a3;stroke-width:1.00157475;stroke-linecap:butt;stroke-linejoin:miter;stroke-miterlimit:4;stroke-dasharray:none;stroke-opacity:1"
     d="M 73.511097,350.02883 C 72.696025,317.10216 85.871992,250.29317 110.84027,212.36402 L 46.762462,176.58617 C 15.883045,232.10504 1.4168649,289.23908 0.79327804,349.58444 Z"
     id="path4534-9"
     inkscape:connector-curvature="0"
     sodipodi:nodetypes="ccccc"
     inkscape:transform-center-x="294.07145"
     inkscape:transform-center-y="-85.893806" />
  <path
     style="fill:#2064a4;fill-opacity:1;stroke:#1f63a3;stroke-width:1.00157475;stroke-linecap:butt;stroke-linejoin:miter;stroke-miterlimit:4;stroke-dasharray:none;stroke-opacity:1"
     d="M 212.41632,588.96468 C 183.49345,573.20722 132.22315,528.392 111.85968,487.80426 l -63.023428,37.60409 c 32.641043,54.50179 74.887488,95.59689 126.836308,126.30961 z"
     id="path4534-9-5"
     inkscape:connector-curvature="0"
     sodipodi:nodetypes="ccccc"
     inkscape:transform-center-x="219.26194"
     inkscape:transform-center-y="220.55981" />
  <path
     style="fill:#2064a4;fill-opacity:1;stroke:#1f63a3;stroke-width:1.00157475;stroke-linecap:butt;stroke-linejoin:miter;stroke-miterlimit:4;stroke-dasharray:none;stroke-opacity:1"
     d="m 488.79345,588.13715 c -28.1078,17.16921 -92.55406,39.16298 -137.88581,36.5044 l 1.05438,73.38193 c 63.52045,-1.01707 120.23308,-17.05602 172.80548,-46.68866 z"
     id="path4534-9-5-3"
     inkscape:connector-curvature="0"
     sodipodi:nodetypes="ccccc"
     inkscape:transform-center-x="-87.949345"
     inkscape:transform-center-y="293.87902" />
  <path
     style="fill:#2064a4;fill-opacity:1;stroke:#1f63a3;stroke-width:1.00157475;stroke-linecap:butt;stroke-linejoin:miter;stroke-miterlimit:4;stroke-dasharray:none;stroke-opacity:1"
     d="m 626.26535,348.37377 c 0.81507,32.92667 -12.3609,99.73566 -37.32917,137.66482 l 64.07781,35.77785 c 30.87942,-55.51886 45.34559,-112.65292 45.96917,-172.99828 z"
     id="path4534-9-5-3-8"
     inkscape:connector-curvature="0"
     sodipodi:nodetypes="ccccc"
     inkscape:transform-center-x="-294.07145"
     inkscape:transform-center-y="85.893804" />
  <path
     style="fill:#2064a4;fill-opacity:1;stroke:#1f63a3;stroke-width:1.00157475;stroke-linecap:butt;stroke-linejoin:miter;stroke-miterlimit:4;stroke-dasharray:none;stroke-opacity:1"
     d="m 487.36013,109.43793 c 28.92286,15.75746 80.19315,60.57268 100.55663,101.16041 L 650.9402,172.99426 C 618.29916,118.49246 576.05271,77.397369 524.10388,46.684653 Z"
     id="path4534-9-5-3-8-8"
     inkscape:connector-curvature="0"
     sodipodi:nodetypes="ccccc"
     inkscape:transform-center-x="-219.26194"
     inkscape:transform-center-y="-220.55981" />
  <circle
     style="fill:none;fill-opacity:1;stroke:#63a31f;stroke-width:18.89763832;stroke-linecap:butt;stroke-linejoin:round;stroke-miterlimit:4;stroke-dasharray:none;stroke-opacity:1;paint-order:normal"
     id="path4649"
     cx="349.88821"
     cy="349.20129"
     r="253.22835" />
  <path
     style="fill:#63a31f;fill-opacity:1;stroke:#63a31f;stroke-width:1px;stroke-linecap:butt;stroke-linejoin:miter;stroke-opacity:1"
     d="m 199.5,172.16669 c 66.04349,-54.85288 143.66361,-65.21871 213.75,-46.5 14.04226,31.41916 21.72054,99.98224 20.91356,182.3235 C 387.55752,253.64953 299.66721,204.9939 199.5,172.16669 Z"
     id="path4653"
     inkscape:connector-curvature="0"
     sodipodi:nodetypes="cccc"
     inkscape:transform-center-x="33.027551"
     inkscape:transform-center-y="-136.66209" />
  <path
     style="fill:#63a31f;fill-opacity:1;stroke:#63a31f;stroke-width:1px;stroke-linecap:butt;stroke-linejoin:miter;stroke-opacity:1"
     d="m 121.37764,390.92402 c -14.48224,-84.62178 15.35075,-157.02569 66.60482,-208.36293 34.23092,3.54863 97.44743,31.18058 168.35356,73.05008 -70.36341,13.19168 -156.44557,64.97911 -234.95838,135.31285 z"
     id="path4653-3"
     inkscape:connector-curvature="0"
     sodipodi:nodetypes="cccc"
     inkscape:transform-center-x="112.8596"
     inkscape:transform-center-y="-62.458746" />
  <path
     style="fill:#63a31f;fill-opacity:1;stroke:#63a31f;stroke-width:1px;stroke-linecap:butt;stroke-linejoin:miter;stroke-opacity:1"
     d="m 271.76587,567.95864 c -80.52573,-29.7689 -128.31286,-91.80698 -147.14518,-161.86293 20.18867,-27.87054 75.7269,-68.80167 147.44001,-109.27343 -23.75737,67.53234 -21.94923,167.9754 -0.29483,271.13636 z"
     id="path4653-3-1"
     inkscape:connector-curvature="0"
     sodipodi:nodetypes="cccc"
     inkscape:transform-center-x="151.54754"
     inkscape:transform-center-y="83.18916" />
  <path
     style="fill:#63a31f;fill-opacity:1;stroke:#63a31f;stroke-width:1px;stroke-linecap:butt;stroke-linejoin:miter;stroke-opacity:1"
     d="m 500.27647,526.23592 c -66.04349,54.85288 -143.66361,65.21871 -213.75,46.5 -14.04226,-31.41917 -21.72055,-99.98225 -20.91357,-182.32351 46.60604,54.34066 134.49635,102.99629 234.66357,135.82351 z"
     id="path4653-3-1-8"
     inkscape:connector-curvature="0"
     sodipodi:nodetypes="cccc"
     inkscape:transform-center-x="-33.027556"
     inkscape:transform-center-y="136.66209" />
  <path
     style="fill:#63a31f;fill-opacity:1;stroke:#63a31f;stroke-width:1px;stroke-linecap:butt;stroke-linejoin:miter;stroke-opacity:1"
     d="m 578.39883,307.47858 c 14.48224,84.62178 -15.35075,157.02569 -66.60482,208.36293 -34.23093,-3.54863 -97.44745,-31.18058 -168.35358,-73.05007 70.36341,-13.19169 156.44558,-64.97911 234.9584,-135.31286 z"
     id="path4653-3-1-8-9"
     inkscape:connector-curvature="0"
     sodipodi:nodetypes="cccc"
     inkscape:transform-center-x="-112.8596"
     inkscape:transform-center-y="62.458741" />
  <path
     style="fill:#63a31f;fill-opacity:1;stroke:#63a31f;stroke-width:1px;stroke-linecap:butt;stroke-linejoin:miter;stroke-opacity:1"
     d="m 428.01059,130.44395 c 80.52573,29.76891 128.31286,91.80699 147.14518,161.86293 -20.18867,27.87054 -75.72691,68.80169 -147.44001,109.27346 23.75736,-67.53235 21.94923,-167.97541 0.29483,-271.13639 z"
     id="path4653-3-1-8-9-6"
     inkscape:connector-curvature="0"
     sodipodi:nodetypes="cccc"
     inkscape:transform-center-x="-151.54754"
     inkscape:transform-center-y="-83.18916" />
</svg>
