<?xml version="1.0" encoding="UTF-8" standalone="no"?>
<svg
   xmlns:dc="http://purl.org/dc/elements/1.1/"
   xmlns:cc="http://creativecommons.org/ns#"
   xmlns:rdf="http://www.w3.org/1999/02/22-rdf-syntax-ns#"
   xmlns:svg="http://www.w3.org/2000/svg"
   xmlns="http://www.w3.org/2000/svg"
   xmlns:sodipodi="http://sodipodi.sourceforge.net/DTD/sodipodi-0.dtd"
   xmlns:inkscape="http://www.inkscape.org/namespaces/inkscape"
   width="104.54161mm"
   height="79.593857mm"
   viewBox="0 0 104.54161 79.593864"
   version="1.1"
   id="svg8"
   inkscape:version="0.92.5 (2060ec1f9f, 2020-04-08)"
   sodipodi:docname="camera_rot.svg">
  <defs
     id="defs2" />
  <sodipodi:namedview
     id="base"
     pagecolor="#ffffff"
     bordercolor="#666666"
     borderopacity="1.0"
     inkscape:pageopacity="0.0"
     inkscape:pageshadow="2"
     inkscape:zoom="0.70710678"
     inkscape:cx="47.195254"
     inkscape:cy="-128.87796"
     inkscape:document-units="mm"
     inkscape:current-layer="layer1"
     inkscape:document-rotation="0"
     showgrid="false"
     inkscape:window-width="1848"
     inkscape:window-height="1016"
     inkscape:window-x="72"
     inkscape:window-y="27"
     inkscape:window-maximized="1" />
  <metadata
     id="metadata5">
    <rdf:RDF>
      <cc:Work
         rdf:about="">
        <dc:format>image/svg+xml</dc:format>
        <dc:type
           rdf:resource="http://purl.org/dc/dcmitype/StillImage" />
        <dc:title></dc:title>
      </cc:Work>
    </rdf:RDF>
  </metadata>
  <g
     inkscape:label="Layer 1"
     inkscape:groupmode="layer"
     id="layer1"
     transform="translate(-414.97356,233.05803)">
    <path
       style="fill:#000000;stroke-width:0.35277799"
       id="path3052"
       d=""
       inkscape:connector-curvature="0" />
    <path
       style="fill:#000000;stroke-width:0.35277799"
       id="path3050"
       d=""
       inkscape:connector-curvature="0" />
    <path
       style="fill:#000000;stroke-width:0.35277799"
       id="path3048"
       d=""
       inkscape:connector-curvature="0" />
    <path
       style="fill:#2664a3;fill-opacity:1;stroke-width:0.26458299"
       d="m 514.90484,-153.47491 -46.8393,-0.005 c -32.55669,0.0492 -47.24829,-0.0157 -48.19945,-0.21287 -0.98485,-0.20419 -1.71829,-0.59183 -2.61766,-1.38348 -1.83642,-1.61648 -2.21905,-2.66179 -2.22604,-6.08123 l -0.006,-2.84427 h 7.22045 c 5.54667,0 7.57171,-0.0915 8.7357,-0.39467 5.18842,-1.35141 8.77472,-5.4247 9.43036,-10.71089 0.35023,-2.82377 0.36519,-25.80489 0.0188,-28.81811 -0.58613,-5.09818 -3.62603,-8.87728 -8.54529,-10.62323 -1.51138,-0.53642 -2.27222,-0.59508 -9.27465,-0.71515 l -7.6282,-0.1308 0.008,-3.13022 c 0,-3.03302 -0.006,-1.97351 -0.006,-3.82523 0,-1.89084 0.5112,-3.16191 3.12736,-3.21249 1.99572,0 3.70678,-0.006 5.66667,-0.0424 l 4.74053,-0.0876 v -2.37296 c 0,-2.59553 0.30693,-3.51284 1.4856,-4.43999 0.67625,-0.53194 0.99312,-0.55253 8.50309,-0.55253 h 7.80065 c 1.54889,0 2.05441,0.46346 2.05441,2.05442 v 2.67696 2.67696 h 3.14134 3.14134 l 0.12737,-1.3256 c 0.1427,-1.48507 0.69358,-2.26664 1.98198,-2.81196 1.18279,-0.50063 7.96874,-0.49883 9.14512,0.002 1.32139,0.56304 2.08539,1.562 2.23936,2.92804 l 0.13606,1.20714 h 23.12513 c 25.69236,0 24.12269,-0.10812 26.11624,1.79886 0.56305,0.53859 1.24505,1.45551 1.51554,2.0376 0.47058,1.01261 0.49182,2.40129 0.49182,32.14687 0,30.71067 -0.0226,29.20624 -0.0226,30.55558 0,3.118 -1.62796,5.63664 -5.15846,5.63664 z m -6.84464,-42.63461 c -1.52787,-5.79582 -4.54884,-10.64407 -8.85055,-14.20389 -6.07785,-5.02966 -14.4256,-7.31788 -21.67779,-5.94217 -11.4501,2.17205 -19.7294,10.25275 -22.01971,21.49154 -1.40319,6.88555 0.0584,14.13941 4.03921,20.04627 1.83943,2.72943 2.62108,3.59618 5.10841,5.6646 6.21345,5.16699 13.99058,7.30746 21.67916,5.96668 11.35969,-1.98096 19.79372,-10.32349 22.19078,-21.95003 0.59301,-2.87628 0.3825,-7.84099 -0.46951,-11.073 z m -9.0674,10.66131 c -0.64873,2.96742 -2.06546,5.42782 -4.59439,7.97898 -3.74741,3.78036 -7.2321,5.265 -12.35776,5.265 -3.45402,0 -4.9744,-0.32276 -7.7574,-1.64681 -1.86431,-0.88697 -2.66744,-1.48732 -4.69575,-3.51012 -2.05626,-2.05068 -2.61166,-2.79459 -3.47979,-4.66088 -1.2713,-2.73301 -1.69594,-4.6875 -1.68965,-7.77698 0.01,-4.91866 1.57449,-8.58308 5.20281,-12.18634 3.7374,-3.71159 7.16852,-5.14387 12.32247,-5.14387 3.29992,0 4.47785,0.27017 7.66939,1.75907 2.1649,1.00995 2.79954,1.47212 4.76933,3.47326 2.61144,2.653 3.96607,5.05597 4.6297,8.21258 0.49375,2.34859 0.48551,5.92856 -0.019,8.23611 z m -12.27769,-6.86435 c -0.61004,-1.20376 -1.18735,-1.70641 -2.75761,-2.40101 -2.66549,-1.17907 -5.43331,-0.10577 -6.82998,2.64853 -0.79328,1.56438 -0.88855,2.46119 -0.4256,4.00638 0.64641,2.15751 2.98246,3.95095 5.13934,3.9456 0.57253,-0.001 1.65836,-0.29005 2.41298,-0.6414 2.84049,-1.32251 3.92811,-4.66293 2.46087,-7.5581 z m -32.35014,-20.49739 c -1.90037,-3.35529 -6.40755,-3.24701 -8.16412,0.19614 -1.07498,2.10713 -0.15608,4.97061 1.93789,6.03887 2.22815,1.13672 5.29418,0.29842 6.29369,-1.72078 0.71355,-1.44152 0.68756,-3.18118 -0.0675,-4.51423 z m -20.83166,39.05726 c -0.668,1.26435 -2.37795,2.70859 -3.66261,3.09348 -0.66438,0.19906 -3.45715,0.30707 -7.9395,0.30707 h -6.91462 v -19.32992 -19.32991 l 7.34219,0.0815 c 6.98188,0.0775 7.39573,0.11012 8.43338,0.66519 1.23423,0.66022 2.39016,1.91934 2.91765,3.1781 0.28538,0.68102 0.35444,3.80509 0.34509,15.61042 -0.0111,14.05024 -0.0362,14.80537 -0.52158,15.7241 z"
       id="path4646"
       sodipodi:nodetypes="scccccscscssccscccsssccccccsscscsscsccscsscsssscssssscsssssccscssccsccssccccscccssscccc"
       inkscape:connector-curvature="0" />
  </g>
</svg>
