<?xml version="1.0" encoding="UTF-8" standalone="no"?>
<!-- Created with Inkscape (http://www.inkscape.org/) -->

<svg
   xmlns:dc="http://purl.org/dc/elements/1.1/"
   xmlns:cc="http://creativecommons.org/ns#"
   xmlns:rdf="http://www.w3.org/1999/02/22-rdf-syntax-ns#"
   xmlns:svg="http://www.w3.org/2000/svg"
   xmlns="http://www.w3.org/2000/svg"
   xmlns:sodipodi="http://sodipodi.sourceforge.net/DTD/sodipodi-0.dtd"
   xmlns:inkscape="http://www.inkscape.org/namespaces/inkscape"
   version="1.1"
   id="svg2"
   width="500"
   height="500"
   viewBox="0 0 500 500"
   sodipodi:docname="screenshot.svg"
   inkscape:version="0.92.5 (2060ec1f9f, 2020-04-08)">
  <metadata
     id="metadata8">
    <rdf:RDF>
      <cc:Work
         rdf:about="">
        <dc:format>image/svg+xml</dc:format>
        <dc:type
           rdf:resource="http://purl.org/dc/dcmitype/StillImage" />
        <dc:title></dc:title>
      </cc:Work>
    </rdf:RDF>
  </metadata>
  <defs
     id="defs6" />
  <sodipodi:namedview
     pagecolor="#ffffff"
     bordercolor="#666666"
     borderopacity="1"
     objecttolerance="10"
     gridtolerance="10"
     guidetolerance="10"
     inkscape:pageopacity="0"
     inkscape:pageshadow="2"
     inkscape:window-width="1848"
     inkscape:window-height="1016"
     id="namedview4"
     showgrid="false"
     inkscape:zoom="0.295"
     inkscape:cx="-1078.7674"
     inkscape:cy="-324.4513"
     inkscape:window-x="72"
     inkscape:window-y="27"
     inkscape:window-maximized="1"
     inkscape:current-layer="svg2" />
  <path
     style="fill:#1f63a3;fill-opacity:1;stroke-width:0.99999994"
     d="M 414.83516,475.27472 V 450.54944 H 391.48351 368.13186 V 432.6923 414.83516 h 23.35165 23.35165 v -23.35165 -23.35165 h 17.85714 17.85714 v 23.35165 23.35165 h 24.72528 24.72527 v 17.85714 17.85714 h -24.72527 -24.72528 v 24.72528 24.72527 H 432.6923 414.83516 Z M 0,409.34065 v -41.20879 h 17.857143 17.857142 v 23.35165 23.35165 h 24.725274 24.725275 v 17.85714 17.85714 H 42.582417 0 Z m 153.84615,23.35165 v -17.85714 h 71.42857 71.42857 v 17.85714 17.85714 H 225.27472 153.84615 Z M 91.346152,363.92172 85.164834,359.57854 V 225.66839 c 0,-100.48934 0.822774,-134.73293 3.296703,-137.20686 2.473983,-2.47398 36.738053,-3.2967 137.299283,-3.2967 h 134.00261 l 4.2625,6.50537 c 3.72912,5.69136 0,0 3.49739,137.2272 3.42324,134.31765 -1.5289,131.48564 -4.33462,134.29133 -2.80634,2.80632 -31.58849,3.73058 -134.61541,4.32286 -115.82774,0.66585 -131.763649,0.2489 -137.227138,-3.58987 z M 161.3231,227.7905 c 8.99275,-3.41905 16.70967,0.52056 32.25492,16.4667 7.49816,7.6915 14.50992,13.98455 15.58167,13.98455 1.07179,0 15.13322,-16.73117 31.24765,-37.18037 16.11443,-20.44921 32.27361,-39.12945 35.9093,-41.51164 10.93025,-7.16176 17.99335,-2.79069 39.06047,24.17293 l 19.78772,25.32614 v -56.8321 -56.8321 H 225.27472 115.38461 l 0.0462,77.60989 0.0462,77.60989 19.79346,-20.21706 c 10.8864,-11.11937 22.61017,-21.28794 26.05278,-22.59683 z m 2.13844,-32.45752 c -13.49509,-5.83762 -19.81863,-20.35114 -15.09849,-34.65331 4.06632,-12.32101 12.14788,-17.82253 26.18074,-17.82253 25.32546,0 36.89557,30.76298 18.00121,47.86215 -6.04833,5.47365 -21.44802,7.9166 -29.08346,4.61369 z M 0,225.27472 v -71.42857 h 17.857143 17.857142 v 71.42857 71.42857 H 17.857143 0 Z m 414.83516,0 v -71.42857 h 17.85714 17.85714 v 71.42857 71.42857 H 432.6923 414.83516 Z M 0,42.58241 V 0 H 42.582417 85.164834 V 17.85714 35.71428 H 60.439559 35.714285 V 60.43956 85.16483 H 17.857143 0 Z M 414.83516,60.43956 V 35.71428 H 391.48351 368.13186 V 17.85714 0 h 41.20879 41.20879 V 42.58241 85.16483 H 432.6923 414.83516 Z M 153.84615,17.85714 V 0 h 71.42857 71.42857 v 17.85714 17.85714 h -71.42857 -71.42857 z"
     id="path817"
     inkscape:connector-curvature="0"
     sodipodi:nodetypes="cccccccccccccccccccccccccccccccccccccccccccccccccsssccscscccsssscccccccsccccsccccccccccccccccccccccccccccccccccccccccccccccccccccccc" />
</svg>
