<?xml version="1.0" encoding="UTF-8" standalone="no"?>
<svg
   xmlns:dc="http://purl.org/dc/elements/1.1/"
   xmlns:cc="http://creativecommons.org/ns#"
   xmlns:rdf="http://www.w3.org/1999/02/22-rdf-syntax-ns#"
   xmlns:svg="http://www.w3.org/2000/svg"
   xmlns="http://www.w3.org/2000/svg"
   xmlns:sodipodi="http://sodipodi.sourceforge.net/DTD/sodipodi-0.dtd"
   xmlns:inkscape="http://www.inkscape.org/namespaces/inkscape"
   width="104.48274mm"
   height="74.71315mm"
   viewBox="0 0 104.48274 74.713153"
   version="1.1"
   id="svg8"
   inkscape:version="1.0.1 (0767f8302a, 2020-10-17)"
   sodipodi:docname="check_small.svg">
  <defs
     id="defs2" />
  <sodipodi:namedview
     id="base"
     pagecolor="#ffffff"
     bordercolor="#666666"
     borderopacity="1.0"
     inkscape:pageopacity="0.0"
     inkscape:pageshadow="2"
     inkscape:zoom="1"
     inkscape:cx="-92.976793"
     inkscape:cy="105.60919"
     inkscape:document-units="mm"
     inkscape:current-layer="layer1"
     inkscape:document-rotation="0"
     showgrid="false"
     inkscape:window-width="1853"
     inkscape:window-height="1145"
     inkscape:window-x="67"
     inkscape:window-y="27"
     inkscape:window-maximized="1" />
  <metadata
     id="metadata5">
    <rdf:RDF>
      <cc:Work
         rdf:about="">
        <dc:format>image/svg+xml</dc:format>
        <dc:type
           rdf:resource="http://purl.org/dc/dcmitype/StillImage" />
        <dc:title></dc:title>
      </cc:Work>
    </rdf:RDF>
  </metadata>
  <g
     inkscape:label="Layer 1"
     inkscape:groupmode="layer"
     id="layer1"
     transform="translate(-805.66946,258.20751)">
    <path
       style="fill:#000000;stroke-width:0.352778"
       id="path3052"
       d="" />
    <path
       style="fill:#000000;stroke-width:0.352778"
       id="path3050"
       d="" />
    <path
       style="fill:#000000;stroke-width:0.352778"
       id="path3048"
       d="" />
    <path
       style="fill:#6020a4;fill-opacity:1;stroke-width:0.352778"
       d="m 841.79714,-183.79023 c -1.48574,-0.5619 -1.47108,-0.55112 -18.7896,-13.81425 -10.41425,-7.9756 -15.84436,-12.35683 -16.37079,-13.20861 -0.94576,-1.53027 -1.26509,-4.73312 -0.65594,-6.57889 0.99583,-3.01739 3.65603,-4.773 7.24133,-4.77892 1.57223,-0.002 2.47962,0.20584 3.52778,0.81039 1.21207,0.6991 10.06819,7.36258 23.31903,17.5456 l 3.56348,2.73846 12.47135,-12.75808 c 35.28333,-36.09458 42.55923,-43.40885 43.62578,-43.85589 2.76189,-1.15764 6.18392,-0.3277 8.45637,2.05091 1.45352,1.52143 1.87739,2.70078 1.8578,5.16916 -0.0273,3.44567 4.46066,-1.48588 -41.52118,45.62474 -10.72738,10.99072 -19.92419,20.25823 -20.43735,20.59446 -1.14088,0.74754 -4.81759,1.01704 -6.28806,0.46092 z"
       id="path7107" />
  </g>
</svg>
