<?xml version="1.0" encoding="UTF-8" standalone="no"?>
<svg
   xmlns:dc="http://purl.org/dc/elements/1.1/"
   xmlns:cc="http://creativecommons.org/ns#"
   xmlns:rdf="http://www.w3.org/1999/02/22-rdf-syntax-ns#"
   xmlns:svg="http://www.w3.org/2000/svg"
   xmlns="http://www.w3.org/2000/svg"
   xmlns:sodipodi="http://sodipodi.sourceforge.net/DTD/sodipodi-0.dtd"
   xmlns:inkscape="http://www.inkscape.org/namespaces/inkscape"
   width="79.593857mm"
   height="104.54161mm"
   viewBox="0 0 79.593855 104.54162"
   version="1.1"
   id="svg8"
   inkscape:version="1.0.1 (0767f8302a, 2020-10-17)"
   sodipodi:docname="camera.svg">
  <defs
     id="defs2" />
  <sodipodi:namedview
     id="base"
     pagecolor="#ffffff"
     bordercolor="#666666"
     borderopacity="1.0"
     inkscape:pageopacity="0.0"
     inkscape:pageshadow="2"
     inkscape:zoom="0.70710678"
     inkscape:cx="-369.05986"
     inkscape:cy="-192.04126"
     inkscape:document-units="mm"
     inkscape:current-layer="layer1"
     inkscape:document-rotation="0"
     showgrid="false"
     inkscape:window-width="1853"
     inkscape:window-height="1145"
     inkscape:window-x="67"
     inkscape:window-y="27"
     inkscape:window-maximized="1" />
  <metadata
     id="metadata5">
    <rdf:RDF>
      <cc:Work
         rdf:about="">
        <dc:format>image/svg+xml</dc:format>
        <dc:type
           rdf:resource="http://purl.org/dc/dcmitype/StillImage" />
        <dc:title></dc:title>
      </cc:Work>
    </rdf:RDF>
  </metadata>
  <g
     inkscape:label="Layer 1"
     inkscape:groupmode="layer"
     id="layer1"
     transform="translate(-427.44744,245.53191)">
    <path
       style="fill:#000000;stroke-width:0.352778"
       id="path3052"
       d="" />
    <path
       style="fill:#000000;stroke-width:0.352778"
       id="path3050"
       d="" />
    <path
       style="fill:#000000;stroke-width:0.352778"
       id="path3048"
       d="" />
    <path
       style="fill:#2664a3;fill-opacity:1;stroke-width:0.264583"
       d="m 427.45817,-145.60063 0.005,-46.8393 c -0.0492,-32.55669 0.0157,-47.24829 0.21287,-48.19945 0.20419,-0.98485 0.59183,-1.71829 1.38348,-2.61766 1.61648,-1.83642 2.66179,-2.21905 6.08123,-2.22604 l 2.84427,-0.006 v 7.22045 c 0,5.54667 0.0915,7.57171 0.39467,8.7357 1.35141,5.18842 5.4247,8.77472 10.71089,9.43036 2.82377,0.35023 25.80489,0.36519 28.81811,0.0188 5.09818,-0.58613 8.87728,-3.62603 10.62323,-8.54529 0.53642,-1.51138 0.59508,-2.27222 0.71515,-9.27465 l 0.1308,-7.6282 3.13022,0.008 c 3.03302,0 1.97351,-0.006 3.82523,-0.006 1.89084,0 3.16191,0.5112 3.21249,3.12736 0,1.99572 0.006,3.70678 0.0424,5.66667 l 0.0876,4.74053 h 2.37296 c 2.59553,0 3.51284,0.30693 4.43999,1.4856 0.53194,0.67625 0.55253,0.99312 0.55253,8.50309 v 7.80065 c 0,1.54889 -0.46346,2.05441 -2.05442,2.05441 h -2.67696 -2.67696 v 3.14134 3.14134 l 1.3256,0.12737 c 1.48507,0.1427 2.26664,0.69358 2.81196,1.98198 0.50063,1.18279 0.49883,7.96874 -0.002,9.14512 -0.56304,1.32139 -1.562,2.08539 -2.92804,2.23936 l -1.20714,0.13606 v 23.12513 c 0,25.69236 0.10812,24.12269 -1.79886,26.11624 -0.53859,0.56305 -1.45551,1.24505 -2.0376,1.51554 -1.01261,0.47058 -2.40129,0.49182 -32.14687,0.49182 -30.71067,0 -29.20624,-0.0226 -30.55558,-0.0226 -3.118,0 -5.63664,-1.62796 -5.63664,-5.15846 z m 42.63461,-6.84464 c 5.79582,-1.52787 10.64407,-4.54884 14.20389,-8.85055 5.02966,-6.07785 7.31788,-14.4256 5.94217,-21.67779 -2.17205,-11.4501 -10.25275,-19.7294 -21.49154,-22.01971 -6.88555,-1.40319 -14.13941,0.0584 -20.04627,4.03921 -2.72943,1.83943 -3.59618,2.62108 -5.6646,5.10841 -5.16699,6.21345 -7.30746,13.99058 -5.96668,21.67916 1.98096,11.35969 10.32349,19.79372 21.95003,22.19078 2.87628,0.59301 7.84099,0.3825 11.073,-0.46951 z m -10.66131,-9.0674 c -2.96742,-0.64873 -5.42782,-2.06546 -7.97898,-4.59439 -3.78036,-3.74741 -5.265,-7.2321 -5.265,-12.35776 0,-3.45402 0.32276,-4.9744 1.64681,-7.7574 0.88697,-1.86431 1.48732,-2.66744 3.51012,-4.69575 2.05068,-2.05626 2.79459,-2.61166 4.66088,-3.47979 2.73301,-1.2713 4.6875,-1.69594 7.77698,-1.68965 4.91866,0.01 8.58308,1.57449 12.18634,5.20281 3.71159,3.7374 5.14387,7.16852 5.14387,12.32247 0,3.29992 -0.27017,4.47785 -1.75907,7.66939 -1.00995,2.1649 -1.47212,2.79954 -3.47326,4.76933 -2.653,2.61144 -5.05597,3.96607 -8.21258,4.6297 -2.34859,0.49375 -5.92856,0.48551 -8.23611,-0.019 z m 6.86435,-12.27769 c 1.20376,-0.61004 1.70641,-1.18735 2.40101,-2.75761 1.17907,-2.66549 0.10577,-5.43331 -2.64853,-6.82998 -1.56438,-0.79328 -2.46119,-0.88855 -4.00638,-0.4256 -2.15751,0.64641 -3.95095,2.98246 -3.9456,5.13934 0.001,0.57253 0.29005,1.65836 0.6414,2.41298 1.32251,2.84049 4.66293,3.92811 7.5581,2.46087 z m 20.49739,-32.35014 c 3.35529,-1.90037 3.24701,-6.40755 -0.19614,-8.16412 -2.10713,-1.07498 -4.97061,-0.15608 -6.03887,1.93789 -1.13672,2.22815 -0.29842,5.29418 1.72078,6.29369 1.44152,0.71355 3.18118,0.68756 4.51423,-0.0675 z m -39.05726,-20.83166 c -1.26435,-0.668 -2.70859,-2.37795 -3.09348,-3.66261 -0.19906,-0.66438 -0.30707,-3.45715 -0.30707,-7.9395 v -6.91462 h 19.32992 19.32991 l -0.0815,7.34219 c -0.0775,6.98188 -0.11012,7.39573 -0.66519,8.43338 -0.66022,1.23423 -1.91934,2.39016 -3.1781,2.91765 -0.68102,0.28538 -3.80509,0.35444 -15.61042,0.34509 -14.05024,-0.0111 -14.80537,-0.0362 -15.7241,-0.52158 z"
       id="path4646"
       sodipodi:nodetypes="scccccscscssccscccsssccccccsscscsscsccscsscsssscssssscsssssccscssccsccssccccscccssscccc" />
  </g>
</svg>
