<?xml version="1.0" encoding="UTF-8" standalone="no"?>
<svg
   xmlns:dc="http://purl.org/dc/elements/1.1/"
   xmlns:cc="http://creativecommons.org/ns#"
   xmlns:rdf="http://www.w3.org/1999/02/22-rdf-syntax-ns#"
   xmlns:svg="http://www.w3.org/2000/svg"
   xmlns="http://www.w3.org/2000/svg"
   xmlns:sodipodi="http://sodipodi.sourceforge.net/DTD/sodipodi-0.dtd"
   xmlns:inkscape="http://www.inkscape.org/namespaces/inkscape"
   width="141.11134mm"
   height="141.11121mm"
   viewBox="0 0 141.11134 141.11123"
   version="1.1"
   id="svg8"
   inkscape:version="1.0.1 (0767f8302a, 2020-10-17)"
   sodipodi:docname="default.svg">
  <defs
     id="defs2" />
  <sodipodi:namedview
     id="base"
     pagecolor="#ffffff"
     bordercolor="#666666"
     borderopacity="1.0"
     inkscape:pageopacity="0.0"
     inkscape:pageshadow="2"
     inkscape:zoom="1"
     inkscape:cx="-10.565212"
     inkscape:cy="183.25462"
     inkscape:document-units="mm"
     inkscape:current-layer="layer1"
     inkscape:document-rotation="0"
     showgrid="false"
     inkscape:window-width="1853"
     inkscape:window-height="1145"
     inkscape:window-x="67"
     inkscape:window-y="27"
     inkscape:window-maximized="1" />
  <metadata
     id="metadata5">
    <rdf:RDF>
      <cc:Work
         rdf:about="">
        <dc:format>image/svg+xml</dc:format>
        <dc:type
           rdf:resource="http://purl.org/dc/dcmitype/StillImage" />
        <dc:title></dc:title>
      </cc:Work>
    </rdf:RDF>
  </metadata>
  <g
     inkscape:label="Layer 1"
     inkscape:groupmode="layer"
     id="layer1"
     transform="translate(-759.39077,278.75119)">
    <path
       style="fill:#000000;stroke-width:0.352778"
       id="path3052"
       d="" />
    <path
       style="fill:#000000;stroke-width:0.352778"
       id="path3050"
       d="" />
    <path
       style="fill:#000000;stroke-width:0.352778"
       id="path3048"
       d="" />
    <path
       style="fill:#2064a4;fill-opacity:1;stroke-width:0.352778"
       d="m 762.5094,-138.50916 c -0.7583,-0.51528 -1.65284,-1.61999 -2.19856,-2.7151 l -0.92007,-1.84635 v -26.86559 c 0,-19.1461 0.11537,-27.21015 0.4015,-28.06476 0.54503,-1.62786 1.91887,-3.41156 3.25533,-4.22649 1.06401,-0.6488 2.16267,-0.67425 29.1578,-0.67552 l 28.05214,-10e-4 1.30428,0.88628 c 0.71736,0.48746 1.7464,1.6384 2.28676,2.55764 l 0.98246,1.67135 0.0967,27.07881 c 0.0964,27.00696 0.0947,27.08346 -0.65954,28.83663 -0.41591,0.9668 -1.37268,2.31478 -2.12615,2.9955 l -1.36995,1.23767 h -28.49209 -28.49209 z m 75.49444,0 c -0.7583,-0.51528 -1.65284,-1.61999 -2.19856,-2.7151 l -0.92007,-1.84635 v -26.86559 c 0,-19.1461 0.11536,-27.21015 0.40149,-28.06476 0.54504,-1.62786 1.91888,-3.41156 3.25534,-4.22649 1.06401,-0.6488 2.16266,-0.67425 29.1578,-0.67552 l 28.05214,-10e-4 1.30428,0.88629 c 0.71736,0.48746 1.7464,1.6384 2.28676,2.55764 l 0.98246,1.67144 0.0967,27.07881 c 0.0964,27.00696 0.0947,27.08346 -0.65954,28.83663 -0.41591,0.9668 -1.37268,2.31478 -2.12615,2.9955 l -1.36995,1.23767 h -28.4921 -28.49208 z m -74.76522,-75.44683 c -1.02101,-0.53923 -1.91814,-1.40774 -2.61313,-2.52977 l -1.05833,-1.70864 -0.10567,-27.01536 c -0.0765,-19.54935 0.006,-27.40534 0.29897,-28.42647 0.50288,-1.75368 1.83581,-3.55346 3.28714,-4.43844 1.06401,-0.6488 2.16267,-0.67425 29.1578,-0.67552 l 28.05214,-0.001 1.30428,0.88629 c 0.77295,0.52524 1.7464,1.63839 2.28676,2.55764 l 0.98246,1.67135 0.0994,26.9875 c 0.11007,29.87711 0.19707,28.61939 -2.16573,31.31046 -2.02044,2.30116 -0.65985,2.20342 -30.67521,2.20342 h -27.29612 z m 76.05631,0.2887 c -0.58208,-0.29424 -1.57917,-1.12068 -2.21576,-1.83654 -2.25395,-2.53464 -2.22612,-2.12232 -2.11657,-31.36052 l 0.099,-26.4191 0.77297,-1.44452 c 0.88036,-1.64521 2.91847,-3.56801 4.08419,-3.85312 0.433,-0.1059 13.35945,-0.14788 28.72543,-0.0933 l 27.93815,0.0993 1.29729,1.23472 c 2.76429,2.63098 2.6058,0.72569 2.61449,31.42993 l 0.008,27.37298 -0.80751,1.52704 c -0.44414,0.83987 -1.41132,2.01578 -2.14929,2.61313 l -1.34176,1.08608 -27.92502,0.0895 c -24.37757,0.0781 -28.05947,0.0215 -28.98336,-0.44552 z"
       id="path6221"
       sodipodi:nodetypes="cscsssccsscssscccccscsssccsccssscccccscccsccsscssscccsscssccsccsscscc" />
  </g>
</svg>
