<?xml version="1.0" encoding="UTF-8" standalone="no"?>
<svg
   xmlns:dc="http://purl.org/dc/elements/1.1/"
   xmlns:cc="http://creativecommons.org/ns#"
   xmlns:rdf="http://www.w3.org/1999/02/22-rdf-syntax-ns#"
   xmlns:svg="http://www.w3.org/2000/svg"
   xmlns="http://www.w3.org/2000/svg"
   xmlns:sodipodi="http://sodipodi.sourceforge.net/DTD/sodipodi-0.dtd"
   xmlns:inkscape="http://www.inkscape.org/namespaces/inkscape"
   width="141.05406mm"
   height="141.10266mm"
   viewBox="0 0 141.05406 141.10268"
   version="1.1"
   id="svg8"
   inkscape:version="1.0.1 (0767f8302a, 2020-10-17)"
   sodipodi:docname="twoBig.svg">
  <defs
     id="defs2" />
  <sodipodi:namedview
     id="base"
     pagecolor="#ffffff"
     bordercolor="#666666"
     borderopacity="1.0"
     inkscape:pageopacity="0.0"
     inkscape:pageshadow="2"
     inkscape:zoom="1"
     inkscape:cx="-11.563031"
     inkscape:cy="254.42954"
     inkscape:document-units="mm"
     inkscape:current-layer="layer1"
     inkscape:document-rotation="0"
     showgrid="false"
     inkscape:window-width="1853"
     inkscape:window-height="1145"
     inkscape:window-x="67"
     inkscape:window-y="27"
     inkscape:window-maximized="1" />
  <metadata
     id="metadata5">
    <rdf:RDF>
      <cc:Work
         rdf:about="">
        <dc:format>image/svg+xml</dc:format>
        <dc:type
           rdf:resource="http://purl.org/dc/dcmitype/StillImage" />
        <dc:title></dc:title>
      </cc:Work>
    </rdf:RDF>
  </metadata>
  <g
     inkscape:label="Layer 1"
     inkscape:groupmode="layer"
     id="layer1"
     transform="translate(-784.12873,297.58289)">
    <path
       style="fill:#000000;stroke-width:0.352778"
       id="path3052"
       d="" />
    <path
       style="fill:#000000;stroke-width:0.352778"
       id="path3050"
       d="" />
    <path
       style="fill:#000000;stroke-width:0.352778"
       id="path3048"
       d="" />
    <path
       style="fill:#2064a4;fill-opacity:1;stroke-width:0.352778"
       d="m 788.02039,-157.06261 c -1.51361,-0.74593 -3.14235,-3.13765 -3.60463,-5.2932 -0.23947,-1.11658 -0.33173,-10.73204 -0.26685,-27.80917 0.0987,-25.97728 0.10282,-26.10926 0.86061,-27.5136 1.0098,-1.87137 2.54473,-3.28649 4.02529,-3.71112 0.75542,-0.21665 15.91164,-0.34582 40.57559,-0.34582 h 39.36975 l 1.5548,0.82114 c 1.021,0.53922 1.91813,1.40774 2.61312,2.52977 l 1.05834,1.70864 0.10568,26.83897 c 0.0765,19.41763 -0.006,27.22916 -0.29897,28.25008 -0.5029,1.75369 -1.83584,3.55347 -3.28716,4.43844 -1.07163,0.65345 -2.34362,0.674 -41.32233,0.66749 -36.44925,-0.006 -40.32595,-0.0606 -41.38324,-0.58162 z m 99.73031,0.0629 c -0.50578,-0.2749 -1.22016,-0.94323 -1.5875,-1.48518 -0.63243,-0.93301 -0.66791,-1.88622 -0.66791,-17.94614 v -16.9608 l 0.97687,-1.28073 c 0.64363,-0.84385 1.36566,-1.35152 2.11666,-1.48826 0.6269,-0.11413 8.54483,-0.16045 17.59541,-0.10291 15.87869,0.10093 16.48334,0.12934 17.24661,0.81016 1.71827,1.53267 1.75195,1.89884 1.75195,19.05 0,17.76085 -0.0153,17.89533 -2.18363,19.21734 -1.12837,0.68795 -1.72702,0.71153 -17.74831,0.69916 -13.61974,-0.0105 -16.74477,-0.10206 -17.50015,-0.51264 z m 0,-50.44721 c -0.50578,-0.27491 -1.22016,-0.94324 -1.5875,-1.48519 -0.63243,-0.93301 -0.66791,-1.88622 -0.66791,-17.94614 v -16.96079 l 0.97687,-1.28073 c 0.64363,-0.84386 1.36566,-1.35153 2.11666,-1.48826 0.6269,-0.11414 8.54483,-0.16046 17.59541,-0.10292 15.87869,0.10094 16.48334,0.12934 17.24661,0.81016 1.71827,1.53267 1.75195,1.89884 1.75195,19.05 0,17.76085 -0.0153,17.89533 -2.18363,19.21734 -1.12837,0.68795 -1.72702,0.71153 -17.74831,0.69916 -13.61974,-0.0105 -16.74477,-0.10206 -17.50015,-0.51263 z m -85.86373,-24.83895 c -12.11566,-0.18922 -13.4955,-0.27044 -14.34033,-0.84413 -1.34145,-0.91091 -2.71824,-3.14892 -3.13626,-5.09808 -0.23256,-1.08442 -0.32542,-10.95163 -0.26147,-27.78411 0.0987,-25.97728 0.10282,-26.10925 0.86061,-27.5136 1.0098,-1.87136 2.54473,-3.28649 4.02529,-3.71111 0.75542,-0.21665 15.91164,-0.34583 40.57559,-0.34583 h 39.36975 l 1.5548,0.82114 c 1.021,0.53923 1.91813,1.40774 2.61312,2.52977 l 1.05834,1.70864 0.10177,26.83897 c 0.0731,19.26848 -0.0115,27.25131 -0.29994,28.30079 -0.46244,1.68285 -2.08524,3.8017 -3.44956,4.50402 -0.76213,0.39233 -6.04062,0.5131 -28.10227,0.64298 -14.94014,0.088 -33.19639,0.0657 -40.56944,-0.0495 z m 84.55066,-26.65281 c -0.67829,-0.77253 -1.15196,-1.77507 -1.29173,-2.73403 -0.12139,-0.8328 -0.17181,-8.49919 -0.11204,-17.03641 0.0983,-14.04804 0.16786,-15.63054 0.73199,-16.66278 1.22409,-2.23981 0.971,-2.21083 19.30861,-2.21083 18.72837,0 18.22027,-0.0675 19.42275,2.58103 0.62571,1.37817 0.6706,2.51568 0.67783,17.17685 0.005,9.22718 -0.13484,16.19813 -0.33808,16.90678 -0.19021,0.66321 -0.77553,1.65435 -1.30072,2.20253 l -0.9549,0.9967 H 905.045 887.50866 Z"
       id="path6746" />
  </g>
</svg>
