<?xml version="1.0" encoding="UTF-8" standalone="no"?>
<svg
   xmlns:dc="http://purl.org/dc/elements/1.1/"
   xmlns:cc="http://creativecommons.org/ns#"
   xmlns:rdf="http://www.w3.org/1999/02/22-rdf-syntax-ns#"
   xmlns:svg="http://www.w3.org/2000/svg"
   xmlns="http://www.w3.org/2000/svg"
   xmlns:sodipodi="http://sodipodi.sourceforge.net/DTD/sodipodi-0.dtd"
   xmlns:inkscape="http://www.inkscape.org/namespaces/inkscape"
   width="117.12341mm"
   height="140.76904mm"
   viewBox="0 0 117.12341 140.76906"
   version="1.1"
   id="svg8"
   inkscape:version="1.0.1 (0767f8302a, 2020-10-17)"
   sodipodi:docname="stop.svg">
  <defs
     id="defs2" />
  <sodipodi:namedview
     id="base"
     pagecolor="#ffffff"
     bordercolor="#666666"
     borderopacity="1.0"
     inkscape:pageopacity="0.0"
     inkscape:pageshadow="2"
     inkscape:zoom="0.175"
     inkscape:cx="-401.97123"
     inkscape:cy="-77.191421"
     inkscape:document-units="mm"
     inkscape:current-layer="layer1"
     inkscape:document-rotation="0"
     showgrid="false"
     inkscape:window-width="1853"
     inkscape:window-height="1145"
     inkscape:window-x="67"
     inkscape:window-y="27"
     inkscape:window-maximized="1" />
  <metadata
     id="metadata5">
    <rdf:RDF>
      <cc:Work
         rdf:about="">
        <dc:format>image/svg+xml</dc:format>
        <dc:type
           rdf:resource="http://purl.org/dc/dcmitype/StillImage" />
        <dc:title></dc:title>
      </cc:Work>
    </rdf:RDF>
  </metadata>
  <g
     inkscape:label="Layer 1"
     inkscape:groupmode="layer"
     id="layer1"
     transform="translate(-255.2994,30.857555)">
    <path
       style="fill:#a42022;fill-opacity:1;stroke-width:0.352778"
       d="m 255.32537,107.87637 c 0.0206,-1.10066 -0.0248,-1.90348 -0.0248,-68.612424 v -67.721029 c -0.0314,-2.037786 0.56299,-2.382794 2.39889,-2.398889 h 22.0963 c 24.68531,0 23.20373,-0.15167 24.56396,2.514613 0.67587,1.324813 0.68636,2.519533 0.59704,68.006374 l -0.0909,66.657885 c 0.0372,2.63393 -0.96061,3.50033 -3.80851,3.57946 l -21.0263,-0.008 c -18.67115,-0.007 -20.6534,-0.0408 -22.17543,-0.0204 -2.10433,-0.0636 -2.44192,-0.85502 -2.53028,-1.99763 z m 67.1794,-1.55347 -0.10371,-66.208192 c -0.0717,-45.7427677 0.26382,-66.56271 0.26898,-67.49849 -0.0271,-2.289748 0.37696,-3.48257 2.41086,-3.47219 h 22.37024 22.37024 c 2.17059,0.0022 2.61243,1.634158 2.57532,2.702969 0.006,0.740067 0.0261,18.8949903 0.0261,67.600831 v 66.822412 c 0.003,2.38426 -1.47961,3.62141 -2.78651,3.64125 -1.48877,-0.0143 -2.49902,-0.009 -22.29123,-0.009 h -21.03181 c -2.91391,-0.10095 -3.735,-0.54833 -3.80848,-3.57946 z"
       id="path3054"
       sodipodi:nodetypes="ssccssscccccsccccccscccccc" />
    <path
       style="fill:#000000;stroke-width:0.352778"
       id="path3052"
       d="" />
    <path
       style="fill:#000000;stroke-width:0.352778"
       id="path3050"
       d="" />
    <path
       style="fill:#000000;stroke-width:0.352778"
       id="path3048"
       d="" />
  </g>
</svg>
