<?xml version="1.0" encoding="UTF-8" standalone="no"?>
<svg
   xmlns:dc="http://purl.org/dc/elements/1.1/"
   xmlns:cc="http://creativecommons.org/ns#"
   xmlns:rdf="http://www.w3.org/1999/02/22-rdf-syntax-ns#"
   xmlns:svg="http://www.w3.org/2000/svg"
   xmlns="http://www.w3.org/2000/svg"
   xmlns:sodipodi="http://sodipodi.sourceforge.net/DTD/sodipodi-0.dtd"
   xmlns:inkscape="http://www.inkscape.org/namespaces/inkscape"
   width="141.29649mm"
   height="141.57709mm"
   viewBox="0 0 141.2965 141.57709"
   version="1.1"
   id="svg8"
   inkscape:version="1.0.1 (0767f8302a, 2020-10-17)"
   sodipodi:docname="discard.svg">
  <defs
     id="defs2" />
  <sodipodi:namedview
     id="base"
     pagecolor="#ffffff"
     bordercolor="#666666"
     borderopacity="1.0"
     inkscape:pageopacity="0.0"
     inkscape:pageshadow="2"
     inkscape:zoom="0.98994949"
     inkscape:cx="480.75209"
     inkscape:cy="258.77425"
     inkscape:document-units="mm"
     inkscape:current-layer="layer1"
     inkscape:document-rotation="0"
     showgrid="false"
     inkscape:window-width="1853"
     inkscape:window-height="1145"
     inkscape:window-x="67"
     inkscape:window-y="27"
     inkscape:window-maximized="1" />
  <metadata
     id="metadata5">
    <rdf:RDF>
      <cc:Work
         rdf:about="">
        <dc:format>image/svg+xml</dc:format>
        <dc:type
           rdf:resource="http://purl.org/dc/dcmitype/StillImage" />
        <dc:title></dc:title>
      </cc:Work>
    </rdf:RDF>
  </metadata>
  <g
     inkscape:label="Layer 1"
     inkscape:groupmode="layer"
     id="layer1"
     transform="translate(67.008925,-79.6387)">
    <path
       style="fill:#a31f21;stroke:none;stroke-width:0.352778"
       d="m -52.150185,80.009591 c -11.599844,2.08774 -17.895417,15.320782 -13.400383,25.941689 1.992556,4.70803 6.33629,8.10535 9.872605,11.64167 l 19.755554,19.75555 9.525,9.525 c 0.874183,0.87454 3.128785,2.43522 2.749197,3.88055 -0.31997,1.21885 -1.896181,2.32199 -2.749197,3.175 l -7.408333,7.40834 -22.577776,22.57777 c -3.899817,3.89996 -8.765303,7.74594 -10.044095,13.40556 -3.811957,16.87054 15.118097,31.14392 29.446871,19.87232 10.974563,-8.63318 20.462168,-20.22616 30.3388858,-30.10288 l 7.408333,-7.40833 c 0.763059,-0.75988 1.921581,-2.37278 3.175,-2.04364 1.218847,0.31997 2.321983,1.89618 3.175,2.7492 l 7.4083322,7.40833 22.224999,22.225 c 6.562019,6.56202 13.162134,13.04113 23.283334,10.61896 11.1513,-2.66876 17.3556,-15.31302 12.68589,-25.78841 -2.14595,-4.8133 -6.56873,-8.34672 -10.21645,-11.99444 l -19.402775,-19.40278 -9.524999,-9.525 c -0.874183,-0.87453 -3.128786,-2.43522 -2.749197,-3.88055 0.351014,-1.33703 2.163233,-2.58904 3.101975,-3.52778 l 7.408333,-7.40833 21.872223,-21.87222 c 4.13632,-4.13646 9.05721,-8.16719 10.49902,-14.11111 C 77.773622,86.362657 58.072752,72.61011 44.158142,83.556169 33.185694,92.187723 23.695267,103.83641 13.819254,113.71239 l -7.4083332,7.40833 c -0.763058,0.75989 -1.92158,2.37279 -3.175,2.04365 -1.218847,-0.31997 -2.321983,-1.89619 -3.174999,-2.7492 L -7.3474112,113.00684 -28.866854,91.487389 C -35.567973,84.78627 -41.798592,78.146516 -52.150185,80.009591 Z"
       id="path372" />
  </g>
</svg>
