<?xml version="1.0" encoding="UTF-8" standalone="no"?>
<svg
   xmlns:dc="http://purl.org/dc/elements/1.1/"
   xmlns:cc="http://creativecommons.org/ns#"
   xmlns:rdf="http://www.w3.org/1999/02/22-rdf-syntax-ns#"
   xmlns:svg="http://www.w3.org/2000/svg"
   xmlns="http://www.w3.org/2000/svg"
   xmlns:sodipodi="http://sodipodi.sourceforge.net/DTD/sodipodi-0.dtd"
   xmlns:inkscape="http://www.inkscape.org/namespaces/inkscape"
   width="125.14177mm"
   height="139.83569mm"
   viewBox="0 0 125.14177 139.8357"
   version="1.1"
   id="svg8"
   inkscape:version="1.0.1 (0767f8302a, 2020-10-17)"
   sodipodi:docname="download.svg">
  <defs
     id="defs2" />
  <sodipodi:namedview
     id="base"
     pagecolor="#ffffff"
     bordercolor="#666666"
     borderopacity="1.0"
     inkscape:pageopacity="0.0"
     inkscape:pageshadow="2"
     inkscape:zoom="0.49497475"
     inkscape:cx="250.56568"
     inkscape:cy="451.30845"
     inkscape:document-units="mm"
     inkscape:current-layer="layer1"
     inkscape:document-rotation="0"
     showgrid="false"
     inkscape:window-width="1853"
     inkscape:window-height="1145"
     inkscape:window-x="67"
     inkscape:window-y="27"
     inkscape:window-maximized="1" />
  <metadata
     id="metadata5">
    <rdf:RDF>
      <cc:Work
         rdf:about="">
        <dc:format>image/svg+xml</dc:format>
        <dc:type
           rdf:resource="http://purl.org/dc/dcmitype/StillImage" />
        <dc:title></dc:title>
      </cc:Work>
    </rdf:RDF>
  </metadata>
  <g
     inkscape:label="Layer 1"
     inkscape:groupmode="layer"
     id="layer1"
     transform="translate(119.92357,3.6162526)">
    <path
       style="fill:#2064a4;fill-opacity:1;stroke-width:0.352778"
       d="m -58.571852,135.84166 c -0.8983,-0.35904 -60.569078,-55.519127 -61.046938,-56.432222 -0.38786,-0.741126 -0.4008,-1.195874 -0.0658,-2.313883 0.70407,-2.349955 0.99694,-2.395125 15.5303,-2.395125 h 12.711332 l 0.0079,-38.011803 c 0.0073,-35.4829285 0.04839,-38.0618616 0.617361,-38.7642626 1.267904,-1.565257 0.722107,-1.540594 34.094642,-1.540594 h 31.944015 l 1.152091,1.029342 1.152094,1.029343 0.09286,38.1289866 0.09286,38.128988 h 12.2899193 c 15.069838,0 15.217418,0.03513 15.217418,3.622167 v 1.55188 L -24.619414,107.36176 c -33.84126,31.17565 -31.700531,29.37996 -33.952438,28.4799 z"
       id="path2082" />
  </g>
</svg>
