<?xml version="1.0" encoding="UTF-8" standalone="no"?>
<svg
   xmlns:dc="http://purl.org/dc/elements/1.1/"
   xmlns:cc="http://creativecommons.org/ns#"
   xmlns:rdf="http://www.w3.org/1999/02/22-rdf-syntax-ns#"
   xmlns:svg="http://www.w3.org/2000/svg"
   xmlns="http://www.w3.org/2000/svg"
   xmlns:sodipodi="http://sodipodi.sourceforge.net/DTD/sodipodi-0.dtd"
   xmlns:inkscape="http://www.inkscape.org/namespaces/inkscape"
   width="140.75713mm"
   height="140.70976mm"
   viewBox="0 0 140.75711 140.70978"
   version="1.1"
   id="svg8"
   inkscape:version="1.0.1 (0767f8302a, 2020-10-17)"
   sodipodi:docname="stop2.svg">
  <defs
     id="defs2" />
  <sodipodi:namedview
     id="base"
     pagecolor="#ffffff"
     bordercolor="#666666"
     borderopacity="1.0"
     inkscape:pageopacity="0.0"
     inkscape:pageshadow="2"
     inkscape:zoom="0.98994949"
     inkscape:cx="-40.337033"
     inkscape:cy="375.52269"
     inkscape:document-units="mm"
     inkscape:current-layer="layer1"
     inkscape:document-rotation="0"
     showgrid="false"
     inkscape:window-width="1853"
     inkscape:window-height="1145"
     inkscape:window-x="67"
     inkscape:window-y="27"
     inkscape:window-maximized="1" />
  <metadata
     id="metadata5">
    <rdf:RDF>
      <cc:Work
         rdf:about="">
        <dc:format>image/svg+xml</dc:format>
        <dc:type
           rdf:resource="http://purl.org/dc/dcmitype/StillImage" />
        <dc:title></dc:title>
      </cc:Work>
    </rdf:RDF>
  </metadata>
  <g
     inkscape:label="Layer 1"
     inkscape:groupmode="layer"
     id="layer1"
     transform="translate(-233.73309,139.66265)">
    <path
       style="fill:#000000;stroke-width:0.352778"
       id="path3052"
       d="" />
    <path
       style="fill:#000000;stroke-width:0.352778"
       id="path3050"
       d="" />
    <path
       style="fill:#000000;stroke-width:0.352778"
       id="path3048"
       d="" />
    <path
       style="fill:#a42022;fill-opacity:1;stroke-width:0.352778"
       d="M 293.53704,0.51493946 C 276.1413,-2.1899055 260.93141,-10.73165 249.71511,-24.09509 c -7.98453,-9.513012 -13.66946,-21.930532 -15.60361,-34.082794 -0.57803,-3.631769 -0.46898,-19.718473 0.15782,-23.280163 2.0162,-11.456772 6.80989,-22.337143 13.76638,-31.245923 8.85608,-11.3415 20.82915,-19.73693 34.38884,-24.1132 7.29586,-2.35468 11.03291,-2.85351 21.31656,-2.84538 9.44124,0.007 11.85451,0.22847 17.13621,1.56938 5.2752,1.33926 8.63853,2.55907 13.62971,4.94323 21.32954,10.18856 35.99177,30.20559 39.44494,53.850667 0.63421,4.342655 0.72661,13.872826 0.17751,18.308421 -1.17743,9.51123 -4.51574,19.312743 -9.46266,27.783043 -2.52793,4.328414 -6.70918,9.633958 -10.77006,13.666007 -11.12785,11.0488513 -24.56826,17.7742765 -40.12027,20.07572446 -4.67971,0.69252104 -15.73018,0.68216004 -20.23944,-0.01898 z"
       id="path3555" />
  </g>
</svg>
