<?xml version="1.0" encoding="UTF-8" standalone="no"?>
<svg
   xmlns:dc="http://purl.org/dc/elements/1.1/"
   xmlns:cc="http://creativecommons.org/ns#"
   xmlns:rdf="http://www.w3.org/1999/02/22-rdf-syntax-ns#"
   xmlns:svg="http://www.w3.org/2000/svg"
   xmlns="http://www.w3.org/2000/svg"
   xmlns:sodipodi="http://sodipodi.sourceforge.net/DTD/sodipodi-0.dtd"
   xmlns:inkscape="http://www.inkscape.org/namespaces/inkscape"
   width="140.76529mm"
   height="140.80177mm"
   viewBox="0 0 140.76527 140.80179"
   version="1.1"
   id="svg8"
   inkscape:version="1.0.1 (0767f8302a, 2020-10-17)"
   sodipodi:docname="save.svg">
  <defs
     id="defs2" />
  <sodipodi:namedview
     id="base"
     pagecolor="#ffffff"
     bordercolor="#666666"
     borderopacity="1.0"
     inkscape:pageopacity="0.0"
     inkscape:pageshadow="2"
     inkscape:zoom="1"
     inkscape:cx="63.491745"
     inkscape:cy="70.035863"
     inkscape:document-units="mm"
     inkscape:current-layer="layer1"
     inkscape:document-rotation="0"
     showgrid="false"
     inkscape:window-width="1853"
     inkscape:window-height="1145"
     inkscape:window-x="67"
     inkscape:window-y="27"
     inkscape:window-maximized="1" />
  <metadata
     id="metadata5">
    <rdf:RDF>
      <cc:Work
         rdf:about="">
        <dc:format>image/svg+xml</dc:format>
        <dc:type
           rdf:resource="http://purl.org/dc/dcmitype/StillImage" />
        <dc:title></dc:title>
      </cc:Work>
    </rdf:RDF>
  </metadata>
  <g
     inkscape:label="Layer 1"
     inkscape:groupmode="layer"
     id="layer1"
     transform="translate(-202.2163,109.40941)">
    <path
       style="fill:#000000;stroke-width:0.352778"
       id="path3052"
       d="" />
    <path
       style="fill:#000000;stroke-width:0.352778"
       id="path3050"
       d="" />
    <path
       style="fill:#000000;stroke-width:0.352778"
       id="path3048"
       d="" />
    <path
       style="fill:#2064a4;fill-opacity:1;stroke-width:0.352778"
       d="m 202.2183,26.032579 c 0,-1.989394 -0.002,-2.944347 -0.002,-65.239204 0,-62.765385 0.0456,-58.774512 0.0456,-62.939235 0,-4.3179 2.42728,-7.21915 8.5736,-7.21915 6.95228,0 -1.23972,-0.0444 52.76411,-0.0444 h 55.06144 l 1.48525,0.74787 c 0.91293,0.4597 5.1956,4.43586 11.11416,10.318755 7.83034,7.783148 9.82366,9.960296 10.67153,11.655695 l 1.04261,2.084819 -0.004,54.183231 -0.004,54.183234 0.0149,1.763888 c 0.0207,2.45438 -3.38749,5.777445 -5.88905,5.799155 l -2.82516,0.01478 h -61.84936 l -64.54405,0.05034 c -2.96778,0 -5.6558,-2.718868 -5.6558,-5.359775 z m 130.52599,-6.9766 V -31.08312 c 0,-42.854541 -0.0735,-50.277498 -0.50568,-51.091715 -0.27812,-0.523941 -4.14618,-4.58128 -8.5957,-9.01631 -7.85257,-7.827012 -8.13783,-8.069082 -9.71903,-8.247302 -1.98391,-0.22362 -3.52905,0.35985 -4.06438,1.53477 -0.27321,0.599625 -0.39854,4.970139 -0.39854,13.897643 0,12.120781 -0.0485,13.152437 -0.69938,14.892178 -0.83908,2.242658 -2.67701,4.226394 -5.10112,5.505817 l -1.78423,0.941694 h -29.45694 c -26.76702,0 -27.46498,-0.0062 -30.75964,-0.0062 -4.57763,0 -6.10563,-2.596693 -6.10563,-7.049396 l -0.17639,-13.758332 c -0.097,-7.567083 -0.30878,-14.026621 -0.4706,-14.35453 -0.78772,-1.596305 -1.46102,-1.696855 -11.36218,-1.696855 h -9.38816 c -2.06126,0 -2.06239,0.435334 -2.06239,2.06239 v 58.262602 58.262604 c 0,1.444563 0.65065,2.062392 2.06239,2.062392 h 58.2626 58.26261 c 1.28302,0 2.06239,-0.477366 2.06239,-2.062392 z M 224.97068,10.902107 c -1.73198,0 -2.82222,-1.1972528 -2.82222,-2.5297803 l -0.0954,-23.7266457 -0.0787,-23.410206 c 0.0459,-2.206009 0.22999,-3.847488 4.78235,-3.87356 7.04858,-0.04037 23.6927,-0.09676 45.66253,-0.09522 43.46222,0 46.07436,-4.61e-4 47.61668,-4.61e-4 2.1472,0 2.82925,1.010276 2.82925,3.01421 l 2.9e-4,23.936626 c 2.8e-4,22.6468355 0.0121,22.0282852 0.0121,23.2341317 0,2.4832679 -1.64267,3.7840873 -4.14839,3.7840873 -1.62396,0 -0.26936,0.0024 -46.3096,-0.01837 -25.70904,-0.01157 -47.06091,-0.153236 -47.44897,-0.314808 z m 70.73194,-85.835497 v -11.267918 -11.267919 c 0,-1.519508 -0.44525,-2.06239 -2.06239,-2.06239 h -5.86549 c -3.23784,0 -5.11981,0.03561 -6.33088,0.03561 -1.52942,0 -1.86666,0.529096 -1.86666,1.56769 0,1.861945 -0.10235,5.645299 -0.10235,11.847138 v 11.27607 c 0,1.232174 0.6383,1.732644 1.88365,1.751486 0.92527,0 2.29337,-0.01967 6.16609,-0.01967 h 6.31793 c 1.23737,0 1.8601,-0.417202 1.8601,-1.860101 z"
       id="path3830"
       sodipodi:nodetypes="csccscssscccssccccccssssscscsscccsccccccccccccscccssssccccccssssccscccc" />
  </g>
</svg>
