<?xml version="1.0" encoding="UTF-8" standalone="no"?>
<svg
   xmlns:dc="http://purl.org/dc/elements/1.1/"
   xmlns:cc="http://creativecommons.org/ns#"
   xmlns:rdf="http://www.w3.org/1999/02/22-rdf-syntax-ns#"
   xmlns:svg="http://www.w3.org/2000/svg"
   xmlns="http://www.w3.org/2000/svg"
   xmlns:sodipodi="http://sodipodi.sourceforge.net/DTD/sodipodi-0.dtd"
   xmlns:inkscape="http://www.inkscape.org/namespaces/inkscape"
   width="139.8916mm"
   height="139.86687mm"
   viewBox="0 0 139.89158 139.86688"
   version="1.1"
   id="svg8"
   inkscape:version="1.0.1 (0767f8302a, 2020-10-17)"
   sodipodi:docname="search.svg">
  <defs
     id="defs2" />
  <sodipodi:namedview
     id="base"
     pagecolor="#ffffff"
     bordercolor="#666666"
     borderopacity="1.0"
     inkscape:pageopacity="0.0"
     inkscape:pageshadow="2"
     inkscape:zoom="1"
     inkscape:cx="-82.210099"
     inkscape:cy="275.20973"
     inkscape:document-units="mm"
     inkscape:current-layer="layer1"
     inkscape:document-rotation="0"
     showgrid="false"
     inkscape:window-width="1853"
     inkscape:window-height="1145"
     inkscape:window-x="67"
     inkscape:window-y="27"
     inkscape:window-maximized="1" />
  <metadata
     id="metadata5">
    <rdf:RDF>
      <cc:Work
         rdf:about="">
        <dc:format>image/svg+xml</dc:format>
        <dc:type
           rdf:resource="http://purl.org/dc/dcmitype/StillImage" />
        <dc:title></dc:title>
      </cc:Work>
    </rdf:RDF>
  </metadata>
  <g
     inkscape:label="Layer 1"
     inkscape:groupmode="layer"
     id="layer1"
     transform="translate(-240.76658,163.69499)">
    <path
       style="fill:#000000;stroke-width:0.352778"
       id="path3052"
       d="" />
    <path
       style="fill:#000000;stroke-width:0.352778"
       id="path3050"
       d="" />
    <path
       style="fill:#000000;stroke-width:0.352778"
       id="path3048"
       d="" />
    <path
       style="fill:#2064a4;fill-opacity:1;stroke-width:0.352778"
       d="m 367.04636,-24.412461 c -0.58208,-0.303022 -6.00512,-5.480635 -12.05118,-11.505807 l -10.99286,-10.95486 -1.62575,0.455185 c -3.52629,0.987298 -8.27908,-0.20115 -10.85987,-2.715538 l -1.31022,-1.276512 -3.55869,1.673909 c -6.47956,3.047802 -13.04163,4.805577 -20.63198,5.526658 -11.4911,1.09165 -24.80502,-1.726797 -34.48197,-7.299546 -7.21438,-4.154607 -15.77683,-11.865489 -20.32485,-18.303458 -4.31369,-6.106261 -8.3822,-15.839452 -9.83735,-23.534103 -0.48205,-2.549042 -0.6163,-5.079453 -0.60434,-11.390897 0.0172,-9.08382 0.45587,-12.04835 2.84487,-19.22638 5.84051,-17.54845 20.33714,-32.04508 37.88559,-37.88559 7.17803,-2.389 10.14256,-2.82765 19.22638,-2.84487 6.31145,-0.012 8.84186,0.12229 11.3909,0.60434 7.69465,1.45515 17.42784,5.52366 23.5341,9.83735 6.43797,4.54802 14.14885,13.11047 18.30346,20.32485 5.57275,9.67695 8.39119,22.99087 7.29955,34.481969 -0.72109,7.590345 -2.47886,14.152424 -5.52666,20.631981 l -1.67391,3.558688 1.27651,1.31022 c 2.51439,2.580788 3.70284,7.333583 2.71554,10.859868 l -0.45519,1.625755 10.95651,10.992855 c 6.02608,6.046067 11.21005,11.500904 11.51993,12.12186 0.84109,1.685409 0.77378,6.78188 -0.11224,8.498239 -0.80074,1.551157 -2.93064,3.650227 -4.51029,4.444993 -1.52971,0.769641 -6.90985,0.76249 -8.39599,-0.01115 z m -59.27778,-32.765418 c 13.07358,-2.103748 24.78269,-9.408452 31.65991,-19.750975 8.96419,-13.481078 10.76835,-28.258726 5.26916,-43.158946 -5.2311,-14.17383 -17.41423,-25.02986 -32.33821,-28.81564 -11.75404,-2.98165 -25.27474,-0.98827 -35.43446,5.22418 -11.05705,6.76115 -18.59845,17.07327 -21.47027,29.3585 -5.44485,23.292264 7.3004,46.904402 29.57082,54.783612 7.74367,2.739686 15.42631,3.53665 22.74305,2.359269 z"
       id="path3914" />
  </g>
</svg>
