<?xml version="1.0" encoding="UTF-8" standalone="no"?>
<svg
   xmlns:dc="http://purl.org/dc/elements/1.1/"
   xmlns:cc="http://creativecommons.org/ns#"
   xmlns:rdf="http://www.w3.org/1999/02/22-rdf-syntax-ns#"
   xmlns:svg="http://www.w3.org/2000/svg"
   xmlns="http://www.w3.org/2000/svg"
   xmlns:sodipodi="http://sodipodi.sourceforge.net/DTD/sodipodi-0.dtd"
   xmlns:inkscape="http://www.inkscape.org/namespaces/inkscape"
   width="138.32266mm"
   height="138.68329mm"
   viewBox="0 0 138.32266 138.68329"
   version="1.1"
   id="svg8"
   inkscape:version="1.0.1 (0767f8302a, 2020-10-17)"
   sodipodi:docname="add.svg">
  <defs
     id="defs2" />
  <sodipodi:namedview
     id="base"
     pagecolor="#ffffff"
     bordercolor="#666666"
     borderopacity="1.0"
     inkscape:pageopacity="0.0"
     inkscape:pageshadow="2"
     inkscape:zoom="0.98994949"
     inkscape:cx="465.83557"
     inkscape:cy="435.8557"
     inkscape:document-units="mm"
     inkscape:current-layer="layer1"
     inkscape:document-rotation="0"
     showgrid="false"
     inkscape:window-width="1853"
     inkscape:window-height="1145"
     inkscape:window-x="67"
     inkscape:window-y="27"
     inkscape:window-maximized="1" />
  <metadata
     id="metadata5">
    <rdf:RDF>
      <cc:Work
         rdf:about="">
        <dc:format>image/svg+xml</dc:format>
        <dc:type
           rdf:resource="http://purl.org/dc/dcmitype/StillImage" />
        <dc:title></dc:title>
      </cc:Work>
    </rdf:RDF>
  </metadata>
  <g
     inkscape:label="Layer 1"
     inkscape:groupmode="layer"
     id="layer1"
     transform="translate(-1.0824238,-43.476681)">
    <path
       style="fill:#1f63a3;stroke:none;stroke-width:0.352778"
       d="M 63.623071,43.890958 C 52.011741,45.434177 41.326451,48.8168 31.520291,55.383194 24.102751,60.350128 17.828281,66.775622 12.724257,74.080132 -8.4762387,104.42078 0.42917731,148.26223 30.10918,169.53191 c 14.227531,10.19563 32.112651,14.24975 49.388881,12.04489 9.60755,-1.22661 18.8976,-4.64961 27.163889,-9.63648 6.27027,-3.78248 11.86039,-8.7062 16.62642,-14.25187 26.81957,-31.20566 19.01436,-80.182493 -14.86253,-102.775897 -6.59589,-4.398962 -14.118519,-7.751833 -21.872219,-9.480369 -7.31203,-1.630035 -15.45202,-2.535192 -22.93055,-1.541226 m 2.11666,11.239894 c 7.64787,-0.902864 16.46943,0.428237 23.63611,3.14205 8.45503,3.201599 16.664159,7.679301 22.898809,14.396119 24.94068,26.870373 19.4377,71.517569 -12.668249,90.161519 -6.77722,3.93524 -14.4018,6.64916 -22.225,7.49935 -18.25343,1.98367 -36.47405,-4.35433 -49.328986,-17.61207 -17.985138,-18.54835 -20.9584547,-50.28988 -6.155654,-71.582133 4.854363,-6.98253 10.247241,-12.505583 17.38464,-17.164719 8.1026,-5.289196 16.95662,-7.718424 26.45833,-8.840116 m -4.93889,17.890947 V 105.47735 H 29.050847 v 16.58055 h 31.749994 v 30.69167 h 18.69722 V 122.0579 H 111.60084 V 105.12457 H 79.498061 V 73.021799 Z"
       id="path222" />
  </g>
</svg>
