<?xml version="1.0" encoding="UTF-8" standalone="no"?>
<svg
   xmlns:dc="http://purl.org/dc/elements/1.1/"
   xmlns:cc="http://creativecommons.org/ns#"
   xmlns:rdf="http://www.w3.org/1999/02/22-rdf-syntax-ns#"
   xmlns:svg="http://www.w3.org/2000/svg"
   xmlns="http://www.w3.org/2000/svg"
   xmlns:sodipodi="http://sodipodi.sourceforge.net/DTD/sodipodi-0.dtd"
   xmlns:inkscape="http://www.inkscape.org/namespaces/inkscape"
   width="138.51826mm"
   height="138.55252mm"
   viewBox="0 0 138.51826 138.55253"
   version="1.1"
   id="svg8"
   inkscape:version="1.0.1 (0767f8302a, 2020-10-17)"
   sodipodi:docname="checkerboard.svg">
  <defs
     id="defs2" />
  <sodipodi:namedview
     id="base"
     pagecolor="#ffffff"
     bordercolor="#666666"
     borderopacity="1.0"
     inkscape:pageopacity="0.0"
     inkscape:pageshadow="2"
     inkscape:zoom="0.70710678"
     inkscape:cx="133.187"
     inkscape:cy="163.9058"
     inkscape:document-units="mm"
     inkscape:current-layer="layer1"
     inkscape:document-rotation="0"
     showgrid="false"
     inkscape:window-width="1853"
     inkscape:window-height="1145"
     inkscape:window-x="67"
     inkscape:window-y="27"
     inkscape:window-maximized="1" />
  <metadata
     id="metadata5">
    <rdf:RDF>
      <cc:Work
         rdf:about="">
        <dc:format>image/svg+xml</dc:format>
        <dc:type
           rdf:resource="http://purl.org/dc/dcmitype/StillImage" />
        <dc:title></dc:title>
      </cc:Work>
    </rdf:RDF>
  </metadata>
  <g
     inkscape:label="Layer 1"
     inkscape:groupmode="layer"
     id="layer1"
     transform="translate(-392.24217,381.46022)">
    <path
       style="fill:#2664a3;fill-opacity:1;stroke-width:0.352778"
       d="m 392.25017,-252.422 c 0,-19.04105 -0.008,-40.00241 -0.008,-59.61944 0,-18.88309 0.0145,-40.08764 0.0145,-57.56775 0,-6.94297 2.45034,-11.78753 13.03015,-11.78753 3.52197,0 108.42877,-0.0635 111.84036,-0.0635 7.58603,0 13.63325,4.39984 13.63325,11.85614 0,4.57102 -0.0634,-2.00713 -0.0634,57.56213 0,59.56926 -5.5e-4,56.14231 -5.5e-4,60.31628 0,4.5769 -3.22531,8.77827 -9.37478,8.77827 -19.74129,0 -39.98656,-0.0928 -59.57479,-0.0476 -54.61169,0.0754 -56.76001,0.0873 -58.98233,0.0873 -5.94266,0 -10.28257,-4.23916 -10.51424,-9.51436 z m 68.9599,-13.75833 v -15.16945 h -15.16944 -15.16945 v 15.16945 15.16944 h 15.16945 15.16944 z m 56.05388,15.15759 c 4.35624,0 4.99924,-0.26688 4.82469,-5.67718 -0.12618,-3.91108 0.15198,-3.96175 0.15198,-13.24861 v -11.40125 h -15.16944 -15.16945 v 15.16945 15.16944 h 11.40125 c 8.65266,0 8.26097,-0.0119 13.96097,-0.0119 z M 430.51841,-296.872 v -15.16944 h -15.16945 -15.16944 v 15.16944 15.16945 h 15.16944 15.16945 z m 61.03055,0 v -15.16944 h -15.16945 -15.16944 v -15.16944 -15.16945 h -15.16944 -15.16945 v 15.16945 15.16944 h 15.16945 15.16944 v 15.16944 15.16945 h 15.16944 15.16945 z m 30.69166,-30.33888 v -15.16945 h -15.16944 -15.16945 v 15.16945 15.16944 h 15.16945 15.16944 z m -91.72221,-30.71275 v -15.19052 l -12.08264,0.10927 -12.08264,0.10928 c -4.60903,0 -6.1208,0.32859 -6.1208,3.99543 0,6.6843 -0.0284,18.8035 -0.095,26.16707 h 15.19052 15.19053 z m 61.03055,0.0211 v -15.16944 h -15.16945 -15.16944 v 15.16944 15.16945 h 15.16944 15.16945 z"
       id="path4730"
       sodipodi:nodetypes="ccsscssccccccscccccccscscccccsscccccccccccccccccccccccccccccccccccccccsccccccccccccccc" />
    <path
       style="fill:#000000;stroke-width:0.352778"
       id="path3052"
       d="" />
    <path
       style="fill:#000000;stroke-width:0.352778"
       id="path3050"
       d="" />
    <path
       style="fill:#000000;stroke-width:0.352778"
       id="path3048"
       d="" />
  </g>
</svg>
