<?xml version="1.0" encoding="UTF-8" standalone="no"?>
<svg
   xmlns:dc="http://purl.org/dc/elements/1.1/"
   xmlns:cc="http://creativecommons.org/ns#"
   xmlns:rdf="http://www.w3.org/1999/02/22-rdf-syntax-ns#"
   xmlns:svg="http://www.w3.org/2000/svg"
   xmlns="http://www.w3.org/2000/svg"
   xmlns:sodipodi="http://sodipodi.sourceforge.net/DTD/sodipodi-0.dtd"
   xmlns:inkscape="http://www.inkscape.org/namespaces/inkscape"
   width="139.75603mm"
   height="100.87276mm"
   viewBox="0 0 139.75602 100.87276"
   version="1.1"
   id="svg8"
   inkscape:version="1.0.1 (0767f8302a, 2020-10-17)"
   sodipodi:docname="connnect.svg">
  <defs
     id="defs2" />
  <sodipodi:namedview
     id="base"
     pagecolor="#ffffff"
     bordercolor="#666666"
     borderopacity="1.0"
     inkscape:pageopacity="0.0"
     inkscape:pageshadow="2"
     inkscape:zoom="1"
     inkscape:cx="-146.0486"
     inkscape:cy="178.61288"
     inkscape:document-units="mm"
     inkscape:current-layer="layer1"
     inkscape:document-rotation="0"
     showgrid="false"
     inkscape:window-width="1853"
     inkscape:window-height="1145"
     inkscape:window-x="67"
     inkscape:window-y="27"
     inkscape:window-maximized="1" />
  <metadata
     id="metadata5">
    <rdf:RDF>
      <cc:Work
         rdf:about="">
        <dc:format>image/svg+xml</dc:format>
        <dc:type
           rdf:resource="http://purl.org/dc/dcmitype/StillImage" />
        <dc:title></dc:title>
      </cc:Work>
    </rdf:RDF>
  </metadata>
  <g
     inkscape:label="Layer 1"
     inkscape:groupmode="layer"
     id="layer1"
     transform="translate(-819.71138,277.52307)">
    <path
       style="fill:#000000;stroke-width:0.352778"
       id="path3052"
       d="" />
    <path
       style="fill:#000000;stroke-width:0.352778"
       id="path3050"
       d="" />
    <path
       style="fill:#000000;stroke-width:0.352778"
       id="path3048"
       d="" />
    <path
       style="fill:#2064a4;fill-opacity:1;stroke-width:0.352778"
       d="m 840.70599,-177.24654 c -1.60208,-0.80721 -5.97108,-5.79911 -9.08328,-10.37829 -5.75692,-8.47054 -8.95551,-16.19937 -11.11798,-26.86467 -0.70585,-3.48124 -0.79878,-4.97672 -0.79312,-12.76274 0.007,-9.48488 0.12201,-10.42109 2.30597,-18.75461 2.52072,-9.61851 8.42917,-20.42 15.17353,-27.73938 2.98843,-3.24323 3.89725,-3.77684 6.43252,-3.77684 1.5609,0 2.17135,0.19304 3.38058,1.069 1.64969,1.19503 2.75861,2.79685 3.06757,4.43108 0.37547,1.98601 -0.42017,3.74098 -3.12997,6.90389 -3.6799,4.29522 -5.61392,7.11349 -8.00149,11.65987 -4.93453,9.39623 -7.24885,20.52916 -6.37049,30.6449 1.10464,12.72172 5.56147,23.23854 14.1567,33.40566 2.96785,3.51061 3.69893,5.15497 3.28141,7.38058 -0.26644,1.42025 -2.46803,4.06732 -4.07318,4.89738 -1.32307,0.68418 -3.74756,0.63047 -5.22877,-0.11583 z m 92.41725,0.22335 c -1.11846,-0.44365 -3.08427,-2.31598 -3.73426,-3.55667 -0.58357,-1.11392 -0.65427,-3.70852 -0.13805,-5.06628 0.19856,-0.52226 1.3555,-2.08041 2.57099,-3.46255 8.70472,-9.89829 13.21788,-20.48488 14.36504,-33.69627 0.62308,-7.17586 -0.49285,-16.07299 -2.86702,-22.85819 -2.40993,-6.88739 -5.81586,-12.76362 -11.08833,-19.13063 -1.64367,-1.98488 -3.08733,-4.00271 -3.20814,-4.48405 -0.45544,-1.81461 0.0639,-4.24341 1.2192,-5.70212 1.37172,-1.73194 3.01641,-2.54312 5.15627,-2.54312 2.24418,0 3.21195,0.58731 6.14773,3.73092 12.38619,13.26301 19.25571,33.34058 17.70396,51.74338 -1.1961,14.18501 -6.05402,26.92068 -14.41805,37.7987 -2.58185,3.35791 -5.80175,6.63375 -7.0237,7.14577 -1.31155,0.54956 -3.41295,0.58593 -4.68564,0.0811 z m -72.49583,-22.68748 c -3.05713,-1.37686 -7.95458,-8.31212 -10.40123,-14.72913 -2.62082,-6.87381 -2.75234,-17.1927 -0.31066,-24.3736 2.46906,-7.26141 8.27049,-15.38841 11.4047,-15.97639 3.16466,-0.59369 6.04303,0.79407 7.27534,3.50771 1.30232,2.8678 0.88886,4.43718 -2.17115,8.24099 -3.91434,4.86581 -5.65444,9.61835 -5.71633,15.61246 -0.0683,6.61782 1.80775,11.43395 6.97751,17.91205 2.1166,2.65225 2.07687,5.49133 -0.11075,7.91571 -2.06367,2.287 -4.55897,2.9659 -6.94743,1.8902 z m 52.89419,0.006 c -1.55657,-0.6779 -3.58899,-3.20061 -3.85711,-4.78761 -0.35253,-2.08664 0.33531,-3.86854 2.45592,-6.36218 2.33125,-2.74135 4.06689,-5.93328 5.17581,-9.51856 0.66076,-2.13635 0.81564,-3.42706 0.80428,-6.70278 -0.0224,-6.46867 -1.65865,-10.94163 -5.97954,-16.3464 -2.40021,-3.00229 -2.94739,-4.65322 -2.29158,-6.91406 0.39014,-1.34497 2.14425,-3.34255 3.60898,-4.10992 1.30109,-0.68162 3.73127,-0.62622 5.2127,0.11884 1.54286,0.77596 4.89437,4.74206 6.93062,8.20154 3.38342,5.74823 5.0598,11.9474 5.06748,18.7392 0.0111,9.83967 -2.96383,17.86436 -9.29881,25.08278 -2.52648,2.87881 -5.17076,3.75671 -7.82875,2.59915 z m -26.88652,-15.04582 c -0.82995,-0.16356 -2.30209,-0.72904 -3.27142,-1.25661 -3.57388,-1.94515 -5.66762,-4.8057 -6.52412,-8.91352 -1.90826,-9.15206 6.25862,-16.85478 15.77565,-14.87905 3.72106,0.77248 7.69233,4.44237 8.99695,8.31415 0.69411,2.05994 0.78077,5.73589 0.18369,7.79161 -0.72111,2.48275 -2.9552,5.52949 -5.09714,6.95123 -3.08657,2.04875 -6.42408,2.70944 -10.06361,1.99219 z"
       id="path7191" />
  </g>
</svg>
