<?xml version="1.0" encoding="UTF-8" standalone="no"?>
<!-- Created with Inkscape (http://www.inkscape.org/) -->

<svg
   version="1.1"
   id="svg2"
   width="527.85962"
   height="480.64706"
   viewBox="0 0 527.85962 480.64706"
   sodipodi:docname="scissors.svg"
   inkscape:version="1.1 (ce6663b3b7, 2021-05-25)"
   xmlns:inkscape="http://www.inkscape.org/namespaces/inkscape"
   xmlns:sodipodi="http://sodipodi.sourceforge.net/DTD/sodipodi-0.dtd"
   xmlns="http://www.w3.org/2000/svg"
   xmlns:svg="http://www.w3.org/2000/svg">
  <defs
     id="defs6" />
  <sodipodi:namedview
     id="namedview4"
     pagecolor="#ffffff"
     bordercolor="#666666"
     borderopacity="1.0"
     inkscape:pageshadow="2"
     inkscape:pageopacity="0.0"
     inkscape:pagecheckerboard="0"
     showgrid="false"
     inkscape:zoom="0.71625003"
     inkscape:cx="-270.15706"
     inkscape:cy="321.11692"
     inkscape:window-width="1853"
     inkscape:window-height="1145"
     inkscape:window-x="67"
     inkscape:window-y="27"
     inkscape:window-maximized="1"
     inkscape:current-layer="g8" />
  <g
     inkscape:groupmode="layer"
     inkscape:label="Image"
     id="g8"
     transform="translate(-612.95422,5.7369176)">
    <path
       style="fill:#00649c;fill-opacity:1;stroke-width:1.33333"
       d="m 677.49373,472.29951 c -18.29349,-4.86748 -29.75427,-11.73218 -42.70829,-25.58114 -24.75441,-26.46462 -29.00645,-70.31509 -9.93477,-102.45531 15.70361,-26.46422 42.28207,-41.33333 73.88314,-41.33333 19.77221,0 37.54443,6.03196 52.75992,17.90691 l 7.33333,5.7233 28.53717,-27.7999 28.53717,-27.79989 -64.82115,-64.09444 c -36.25891,-35.8524 -67.7468,-68.11682 -71.4608,-73.22312 -21.78985,-29.95832 -34.04986,-74.818063 -29.48923,-107.90192 1.69277,-12.279693 5.45307,-23.6819236 9.3735,-28.4229256 l 2.52597,-3.054662 166.39867,166.2518976 166.39869,166.25188 5.84035,-5.25385 c 12.6971,-11.42202 33.7422,-18.52261 55.0105,-18.56042 40.1369,-0.0713 73.3952,25.46586 83.2392,63.91481 3.2645,12.75034 2.1482,40.43359 -2.0692,51.31679 -8.3354,21.50984 -22.9691,38.16292 -41.5372,47.26905 -25.6454,12.57696 -53.5694,12.59531 -79.817,0.0525 -11.3095,-5.40445 -11.4662,-5.55003 -74.66665,-69.35647 l -63.33333,-63.94067 -59.33333,59.44018 c -32.63333,32.69211 -62.93333,62.19364 -67.33333,65.55897 -20.59472,15.75184 -48.9337,21.58389 -73.33333,15.09172 z m 388.33887,-58.6697 c 19.8528,-9.01139 22.4468,-34.73991 4.7549,-47.16092 -6.4989,-4.56268 -16.2057,-6.03244 -23.6389,-3.57928 -20.8438,6.87908 -25.0995,35.44161 -7.1234,47.80948 9.0065,6.19665 16.8621,7.08188 26.0074,2.93072 z m -138.67947,-193.04043 -30.31884,-30.34035 98.04056,-97.992977 98.04055,-97.9929706 2.6283,3.333333 c 1.4456,1.83333302 3.9602,7.533333 5.5882,12.6666656 3.8857,12.252814 4.2089,40.947046 0.6488,57.588879 -5.1602,24.120773 -15.8336,48.40765 -29.1858,66.41111 -6.0267,8.126 -112.4521,116.66666 -114.39309,116.66666 -0.40141,0 -14.37332,-13.65316 -31.04868,-30.34035 z"
       id="path845" />
  </g>
</svg>
