<?xml version="1.0" encoding="UTF-8" standalone="no"?>
<svg
   xmlns:dc="http://purl.org/dc/elements/1.1/"
   xmlns:cc="http://creativecommons.org/ns#"
   xmlns:rdf="http://www.w3.org/1999/02/22-rdf-syntax-ns#"
   xmlns:svg="http://www.w3.org/2000/svg"
   xmlns="http://www.w3.org/2000/svg"
   xmlns:sodipodi="http://sodipodi.sourceforge.net/DTD/sodipodi-0.dtd"
   xmlns:inkscape="http://www.inkscape.org/namespaces/inkscape"
   width="139.81795mm"
   height="107.20171mm"
   viewBox="0 0 139.81795 107.20171"
   version="1.1"
   id="svg8"
   inkscape:version="1.0.1 (0767f8302a, 2020-10-17)"
   sodipodi:docname="check_blue.svg">
  <defs
     id="defs2" />
  <sodipodi:namedview
     id="base"
     pagecolor="#ffffff"
     bordercolor="#666666"
     borderopacity="1.0"
     inkscape:pageopacity="0.0"
     inkscape:pageshadow="2"
     inkscape:zoom="1"
     inkscape:cx="19.354604"
     inkscape:cy="226.56458"
     inkscape:document-units="mm"
     inkscape:current-layer="layer1"
     inkscape:document-rotation="0"
     showgrid="false"
     inkscape:window-width="1853"
     inkscape:window-height="1145"
     inkscape:window-x="67"
     inkscape:window-y="27"
     inkscape:window-maximized="1" />
  <metadata
     id="metadata5">
    <rdf:RDF>
      <cc:Work
         rdf:about="">
        <dc:format>image/svg+xml</dc:format>
        <dc:type
           rdf:resource="http://purl.org/dc/dcmitype/StillImage" />
        <dc:title></dc:title>
      </cc:Work>
    </rdf:RDF>
  </metadata>
  <g
     inkscape:label="Layer 1"
     inkscape:groupmode="layer"
     id="layer1"
     transform="translate(-775.94844,290.21029)">
    <path
       style="fill:#000000;stroke-width:0.352778"
       id="path3052"
       d="" />
    <path
       style="fill:#000000;stroke-width:0.352778"
       id="path3050"
       d="" />
    <path
       style="fill:#000000;stroke-width:0.352778"
       id="path3048"
       d="" />
    <path
       style="fill:#2064a4;fill-opacity:1;stroke-width:0.352778"
       d="m 826.38561,-183.39221 c -0.96937,-0.27189 -6.3794,-5.47743 -25.17314,-24.22166 -16.33236,-16.28933 -24.14814,-24.3237 -24.5985,-25.28645 -0.88661,-1.89537 -0.88747,-5.50982 -0.002,-7.40833 0.41775,-0.89544 3.47673,-4.19933 8.37073,-9.04088 7.37042,-7.29147 7.79602,-7.64925 9.59834,-8.06901 2.12916,-0.49587 4.4586,-0.28456 6.14583,0.55752 0.62725,0.31305 7.37159,6.78422 14.98743,14.38039 l 13.84698,13.8112 30.25024,-30.23731 c 21.28528,-21.27619 30.63894,-30.39774 31.56182,-30.77864 1.82185,-0.75192 5.40127,-0.68569 7.15508,0.1324 0.89313,0.41661 4.14715,3.42456 8.86469,8.19434 8.02646,8.11533 8.39408,8.64919 8.36131,12.14249 -0.0367,3.90993 2.25726,1.40564 -40.81154,44.55424 -32.2406,32.30033 -40.25357,40.15031 -41.67834,40.83057 -1.90133,0.9078 -4.59511,1.07975 -6.87916,0.43913 z"
       id="path7023" />
  </g>
</svg>
