<?xml version="1.0" encoding="UTF-8" standalone="no"?>
<svg
   xmlns:dc="http://purl.org/dc/elements/1.1/"
   xmlns:cc="http://creativecommons.org/ns#"
   xmlns:rdf="http://www.w3.org/1999/02/22-rdf-syntax-ns#"
   xmlns:svg="http://www.w3.org/2000/svg"
   xmlns="http://www.w3.org/2000/svg"
   xmlns:sodipodi="http://sodipodi.sourceforge.net/DTD/sodipodi-0.dtd"
   xmlns:inkscape="http://www.inkscape.org/namespaces/inkscape"
   width="87.74218mm"
   height="87.051445mm"
   viewBox="0 0 87.742176 87.051448"
   version="1.1"
   id="svg8"
   inkscape:version="1.0.1 (0767f8302a, 2020-10-17)"
   sodipodi:docname="hand.svg">
  <defs
     id="defs2" />
  <sodipodi:namedview
     id="base"
     pagecolor="#ffffff"
     bordercolor="#666666"
     borderopacity="1.0"
     inkscape:pageopacity="0.0"
     inkscape:pageshadow="2"
     inkscape:zoom="1"
     inkscape:cx="-330.16954"
     inkscape:cy="99.958161"
     inkscape:document-units="mm"
     inkscape:current-layer="layer1"
     inkscape:document-rotation="0"
     showgrid="false"
     inkscape:window-width="1853"
     inkscape:window-height="1145"
     inkscape:window-x="67"
     inkscape:window-y="27"
     inkscape:window-maximized="1" />
  <metadata
     id="metadata5">
    <rdf:RDF>
      <cc:Work
         rdf:about="">
        <dc:format>image/svg+xml</dc:format>
        <dc:type
           rdf:resource="http://purl.org/dc/dcmitype/StillImage" />
        <dc:title></dc:title>
      </cc:Work>
    </rdf:RDF>
  </metadata>
  <g
     inkscape:label="Layer 1"
     inkscape:groupmode="layer"
     id="layer1"
     transform="translate(-503.89059,361.02754)">
    <path
       style="fill:#000000;stroke-width:0.352778"
       id="path3052"
       d="" />
    <path
       style="fill:#000000;stroke-width:0.352778"
       id="path3050"
       d="" />
    <path
       style="fill:#000000;stroke-width:0.352778"
       id="path3048"
       d="" />
    <path
       style="fill:#2064a4;fill-opacity:1;stroke-width:0.1"
       d="m 534.93277,-274.01654 -9.1,-0.0569 -0.7,-0.37465 c -2.18811,-1.17112 -3.41168,-2.93058 -3.94675,-5.67535 -0.0809,-0.41495 -0.25671,-0.75872 -0.71599,-1.4 -1.45519,-2.03181 -2.99617,-4.95025 -4.11852,-7.8 -2.23585,-5.67701 -2.92184,-10.96208 -1.91758,-14.77361 0.31321,-1.18874 0.60029,-1.7678 0.8301,-1.67442 2.15749,0.87668 4.25538,0.79935 6.26919,-0.23108 1.32929,-0.68018 2.57699,-2.07971 3.04977,-3.42089 0.10781,-0.30585 0.24098,-0.40749 1.05582,-0.80581 0.87088,-0.42571 0.95014,-0.44654 1.20039,-0.31542 1.02242,0.5357 2.60137,0.79131 3.84024,0.62169 1.57825,-0.2161 2.79265,-0.81081 3.90113,-1.91046 0.64101,-0.6359 0.688,-0.66256 1.2873,-0.73036 l 0.62201,-0.0704 0.46607,0.41025 c 0.56695,0.49905 1.8461,1.14014 2.72682,1.36663 0.84463,0.21721 2.43031,0.21608 3.33473,-0.002 0.75038,-0.18125 1.80815,-0.67625 2.47069,-1.15619 0.4515,-0.32707 0.94158,-0.40102 1.20988,-0.18257 0.0844,0.0687 0.30136,0.3725 0.48205,0.675 0.87778,1.46949 2.29278,2.51958 4.05716,3.01087 1.46667,0.40841 3.35408,0.27559 4.78125,-0.33644 0.46961,-0.20139 0.49664,-0.20246 0.81277,-0.0322 0.60053,0.32341 1.52054,1.13926 2.00374,1.77687 0.60446,0.79762 1.17997,2.0218 1.38718,2.95066 0.33913,1.52028 0.15283,3.49481 -0.45674,4.84104 l -0.29921,0.66078 -0.86231,0.21288 c -2.25984,0.55789 -4.02207,1.94793 -5.01685,3.9573 -0.58543,1.1825 -0.81263,2.17206 -0.81696,3.55826 -0.004,1.35137 0.14518,2.08682 0.72541,3.57086 0.47068,1.20383 0.4755,1.56421 0.0327,2.43811 -0.40217,0.79366 -0.63756,1.88968 -0.7041,3.27842 -0.10354,2.16114 -0.56691,3.58017 -1.61345,4.941 -0.84565,1.09962 -2.19631,2.01657 -3.6779,2.49692 -0.76649,0.2485 -1.10541,0.25338 -12.6,0.18155 z m 24.2,-10.49073 c -1.30822,-0.39061 -2.41933,-1.10672 -3.15988,-2.03655 -0.50489,-0.63395 -1.12662,-1.92615 -1.27959,-2.65951 -0.15681,-0.75178 -0.13431,-2.25631 0.0452,-3.02008 0.521,-2.21718 2.32712,-4.0233 4.5443,-4.5443 0.83445,-0.19609 2.38941,-0.1984 3.15399,-0.005 0.85121,0.21564 2.11003,0.86311 2.71498,1.39644 0.66524,0.58647 1.38524,1.67118 1.71583,2.58495 0.34628,1.47504 0.47528,2.85765 0.0236,4.25518 -0.59204,1.80755 -1.99492,3.23254 -3.83205,3.89243 -0.96841,0.34786 -2.9833,0.41772 -3.92637,0.13614 z m 8.45,-12.57241 c -1.42697,-0.30817 -2.81894,-1.3504 -3.47497,-2.60187 -1.11511,-2.12723 -0.74143,-4.74694 0.91232,-6.39598 0.94339,-0.9407 2.41123,-1.54241 3.76265,-1.54241 1.32829,0 2.81046,0.6109 3.75223,1.54653 1.0458,1.03898 1.54777,2.28853 1.54777,3.85286 0,1.47345 -0.52077,2.74193 -1.53735,3.74466 -0.73612,0.72609 -1.38669,1.09008 -2.42119,1.35467 -0.89224,0.22819 -1.62193,0.24012 -2.54146,0.0415 z m 8.95,-9.28415 c -1.30074,-0.41311 -2.26127,-1.24402 -2.8408,-2.45746 -0.4468,-1.28431 -0.64,-2.42924 -0.13344,-3.70212 0.44891,-1.1081 1.41614,-2.07533 2.52424,-2.52424 0.46176,-0.18706 0.74251,-0.22305 1.75,-0.22428 1.1507,-10e-4 1.22853,0.012 1.89432,0.32731 0.88225,0.41778 1.43923,0.87507 1.88644,1.54882 1.08899,1.64063 1.03619,3.88593 -0.1273,5.41309 -0.88921,1.16716 -2.14343,1.76439 -3.68056,1.75261 -0.4801,-0.004 -1.0529,-0.0639 -1.2729,-0.13373 z m -59.48659,-0.47502 c -1.24007,-0.23721 -2.57983,-1.10132 -3.32364,-2.14368 -0.68274,-0.95677 -0.95427,-1.76549 -1.01612,-3.02634 -0.0889,-1.81276 0.39301,-3.14071 1.56179,-4.30342 2.44233,-2.42967 6.64432,-2.03239 8.5974,0.81284 0.57112,0.83202 0.83894,1.69502 0.8929,2.87729 0.0805,1.76412 -0.40488,3.10748 -1.5386,4.25807 -1.28265,1.30173 -3.27365,1.88869 -5.17373,1.52524 z m 34.73659,-2.94245 c -1.4667,-0.38596 -2.85305,-1.48291 -3.47225,-2.7474 -1.11787,-2.28288 -0.73527,-4.90539 0.96381,-6.60626 1.11036,-1.11153 2.32904,-1.59399 4.02962,-1.59524 2.88087,-0.002 5.07007,1.92475 5.48134,4.82455 0.3927,2.76894 -1.37458,5.42536 -4.07495,6.1251 -0.75015,0.19438 -2.18744,0.19401 -2.92757,-7e-4 z m -23.6653,-2.14064 c -1.8173,-0.47639 -3.18417,-1.69029 -3.81365,-3.38683 -0.3033,-0.81743 -0.41373,-2.43423 -0.22541,-3.3001 0.21591,-0.99271 0.75681,-1.97424 1.4898,-2.70342 2.85409,-2.83929 7.87512,-1.72938 9.2235,2.03888 0.15085,0.42157 0.2297,0.93209 0.26514,1.71669 0.0433,0.95913 0.0192,1.22014 -0.1707,1.85 -0.4736,1.57037 -1.41582,2.69552 -2.82284,3.37089 -1.32721,0.63705 -2.58949,0.76946 -3.94584,0.41389 z m 11.8153,-0.69067 c -0.96046,-0.28006 -1.65218,-0.69174 -2.35206,-1.39984 -1.10582,-1.11882 -1.59794,-2.34435 -1.59794,-3.97938 0,-1.56882 0.48851,-2.82037 1.52023,-3.8948 1.0448,-1.08805 2.38961,-1.63678 4.01134,-1.63678 1.63766,0 2.86911,0.49534 3.9711,1.59733 1.10199,1.10199 1.59733,2.33344 1.59733,3.9711 0,0.48925 -0.067,1.14682 -0.14891,1.46125 -0.49132,1.88629 -2.03512,3.4301 -3.92141,3.92141 -0.77613,0.20216 -2.31736,0.18199 -3.07968,-0.0403 z m 46.67507,-1.56531 c -1.4547,-0.39172 -2.47383,-1.378 -2.87845,-2.78566 -0.24788,-0.86241 -0.17039,-2.126 0.17672,-2.88164 0.5538,-1.20557 1.69728,-2.06233 3.06573,-2.29699 1.77697,-0.30472 3.62687,0.66257 4.39292,2.29699 0.24199,0.5163 0.26801,0.68344 0.26801,1.72181 0,1.03837 -0.026,1.20551 -0.26801,1.72181 -0.83008,1.77103 -2.87972,2.72916 -4.75692,2.22368 z m -74.07507,-5.2806 c -1.33511,-0.44175 -2.25421,-1.23423 -2.83008,-2.44021 -0.36361,-0.76146 -0.36988,-0.79516 -0.36766,-1.97468 0.002,-1.00442 0.0385,-1.28964 0.22429,-1.75 0.44679,-1.10679 1.41482,-2.07511 2.52345,-2.52424 0.46176,-0.18707 0.74251,-0.22305 1.75,-0.22429 1.17976,-0.001 1.21313,0.005 1.97815,0.3701 0.9976,0.47635 1.67755,1.16059 2.16265,2.17631 0.35053,0.73396 0.3592,0.78109 0.3592,1.95212 0,1.17746 -0.007,1.21455 -0.36992,1.97468 -0.48543,1.01657 -1.14037,1.67112 -2.1554,2.15409 -0.72136,0.34323 -0.84695,0.37032 -1.82468,0.39354 -0.66803,0.0159 -1.19551,-0.0232 -1.45,-0.10742 z m 43.31877,-5.40907 c -2.21797,-0.6373 -3.66877,-2.56606 -3.66877,-4.87744 0,-1.53037 0.43192,-2.61212 1.44909,-3.62929 1.01061,-1.01061 2.10242,-1.45011 3.59692,-1.4479 1.45921,0.002 2.62247,0.4699 3.60309,1.44881 0.66293,0.66178 1.17429,1.58296 1.36037,2.4506 0.1683,0.78475 0.0651,2.31949 -0.20325,3.02188 -0.47107,1.23309 -1.64645,2.40915 -2.88374,2.88539 -0.72547,0.27924 -2.51377,0.36055 -3.25371,0.14795 z m -30.6,-1.10599 c -1.71027,-0.47014 -3.06491,-1.83995 -3.52351,-3.56297 -0.31036,-1.16608 -0.12835,-2.77903 0.43212,-3.82937 0.34743,-0.65111 1.329,-1.63268 1.98011,-1.98011 1.05034,-0.56047 2.66329,-0.74248 3.82937,-0.43212 1.74681,0.46493 3.10295,1.82107 3.56788,3.56788 0.18322,0.68841 0.18322,1.98531 0,2.67372 -0.46493,1.74681 -1.82107,3.10295 -3.56788,3.56788 -0.66005,0.17567 -2.07043,0.17313 -2.71809,-0.005 z m 15.5,-1.5 c -1.71027,-0.47014 -3.06491,-1.83995 -3.52351,-3.56297 -0.31036,-1.16608 -0.12835,-2.77903 0.43212,-3.82937 0.34743,-0.65111 1.329,-1.63268 1.98011,-1.98011 1.05034,-0.56047 2.66329,-0.74248 3.82937,-0.43212 1.74681,0.46493 3.10295,1.82107 3.56788,3.56788 0.1892,0.71087 0.18326,1.96043 -0.0129,2.72243 -0.43322,1.68243 -1.82295,3.05818 -3.55493,3.51917 -0.66005,0.17567 -2.07043,0.17313 -2.71809,-0.005 z m -31.51877,-1.68452 c -1.16833,-0.3866 -1.98725,-1.0953 -2.47888,-2.14524 -0.4282,-0.91449 -0.50104,-2.18272 -0.18007,-3.13504 0.59648,-1.76974 2.1185,-2.76163 4.09277,-2.66724 0.70365,0.0336 0.99343,0.0995 1.5182,0.34508 0.83064,0.3887 1.54337,1.10035 1.9398,1.93684 0.28615,0.60381 0.30818,0.72892 0.30818,1.75029 0,1.02826 -0.0207,1.1437 -0.31744,1.77007 -0.40542,0.8558 -1.06036,1.50965 -1.91249,1.90935 -0.58109,0.27257 -0.79623,0.31789 -1.62007,0.34128 -0.59155,0.0168 -1.10093,-0.023 -1.35,-0.10539 z m -2.91758,-9.00353 c -0.96572,-0.31522 -1.87716,-1.18799 -2.23653,-2.14162 -0.30493,-1.04667 -0.23948,-2.17128 0.19945,-2.99868 0.38017,-0.71056 0.77711,-1.09801 1.53335,-1.49667 1.06376,-0.38174 2.22767,-0.46348 3.18376,0.001 2.27885,1.2584 2.47371,4.10424 1.03208,5.66929 -0.68886,0.73644 -1.3722,1.03754 -2.43645,1.07355 -0.53124,0.018 -1.01713,-0.0229 -1.27566,-0.10728 z m 52.91627,-0.63617 c -1.21394,-0.43305 -2.05196,-1.18303 -2.57855,-2.30765 -0.261,-0.55739 -0.31939,-0.81869 -0.35275,-1.57851 -0.0627,-1.42883 0.2533,-2.30971 1.17288,-3.26907 0.9116,-0.95104 1.89358,-1.31681 3.3627,-1.25256 0.81952,0.0358 1.00842,0.0821 1.66961,0.40888 0.91286,0.45116 1.56783,1.11984 2.00892,2.05097 0.30056,0.63446 0.3185,0.73711 0.3185,1.82233 0,1.08522 -0.0179,1.18787 -0.3185,1.82233 -0.44191,0.93285 -1.09581,1.59968 -2.01334,2.05315 -0.69343,0.34271 -0.826,0.37284 -1.75905,0.3998 -0.77299,0.0223 -1.12641,-0.0127 -1.51042,-0.14967 z m -36.9,-0.2 c -1.21171,-0.43226 -2.0477,-1.17935 -2.58224,-2.30765 -0.29892,-0.63096 -0.31631,-0.73166 -0.31391,-1.81796 0.003,-1.55614 0.20582,-2.07733 1.18797,-3.05949 0.98309,-0.98309 1.50277,-1.18453 3.06468,-1.18797 1.13425,-0.002 1.16884,0.004 1.90905,0.37004 0.92167,0.45552 1.57463,1.12072 2.01726,2.05509 0.30056,0.63446 0.3185,0.73711 0.3185,1.82233 0,1.08522 -0.0179,1.18787 -0.3185,1.82233 -0.44191,0.93285 -1.09581,1.59968 -2.01334,2.05315 -0.69343,0.34271 -0.826,0.37284 -1.75905,0.3998 -0.77299,0.0223 -1.12641,-0.0127 -1.51042,-0.14967 z m 19.3,-2.5 c -1.21394,-0.43305 -2.05196,-1.18303 -2.57855,-2.30765 -0.261,-0.55739 -0.31939,-0.81869 -0.35275,-1.57851 -0.0627,-1.42883 0.2533,-2.30971 1.17288,-3.26907 0.9116,-0.95104 1.89358,-1.31681 3.3627,-1.25256 0.81952,0.0359 1.00842,0.0821 1.66961,0.40888 0.91286,0.45116 1.56783,1.11984 2.00892,2.05097 0.30056,0.63446 0.3185,0.73711 0.3185,1.82233 0,1.08522 -0.0179,1.18787 -0.3185,1.82233 -0.44191,0.93285 -1.09581,1.59968 -2.01334,2.05315 -0.69343,0.34271 -0.826,0.37284 -1.75905,0.3998 -0.77299,0.0223 -1.12641,-0.0127 -1.51042,-0.14967 z m -21.71627,-10.06382 c -0.59419,-0.19396 -1.04508,-0.49467 -1.52921,-1.01988 -1.01321,-1.28347 -1.13182,-2.97245 -0.5124,-4.12043 0.38607,-0.71199 0.78398,-1.09924 1.53788,-1.49667 1.06376,-0.38174 2.22767,-0.46348 3.18376,10e-4 0.66331,0.32574 1.41407,1.09067 1.71962,1.75206 0.46988,1.3529 0.14583,3.01251 -0.68754,3.91723 -0.68887,0.73645 -1.3722,1.03754 -2.43645,1.07355 -0.53124,0.018 -1.01713,-0.0229 -1.27566,-0.10727 z m 42.5,0 c -0.89529,-0.29224 -1.77419,-1.08349 -2.1596,-1.94422 -0.32032,-0.71537 -0.35549,-1.99917 -0.0752,-2.74278 0.33421,-0.8865 0.87646,-1.50029 1.67092,-1.89141 0.63095,-0.31061 0.74565,-0.33338 1.67931,-0.33338 0.87062,0 1.07426,0.034 1.5521,0.25943 0.70138,0.33084 1.35973,0.98919 1.69057,1.69057 0.22528,0.4776 0.25943,0.68164 0.25943,1.55 0,0.86836 -0.0342,1.0724 -0.25943,1.55 -0.33244,0.70478 -0.99246,1.36271 -1.69057,1.68523 -0.66669,0.308 -1.99545,0.39595 -2.66758,0.17656 z m -20.1,-2.5 c -0.59419,-0.19396 -1.04508,-0.49467 -1.52921,-1.01988 -0.67931,-0.73697 -0.85178,-1.22087 -0.85255,-2.39191 -6e-4,-0.86905 0.0334,-1.07262 0.25945,-1.55456 0.3583,-0.76391 0.77311,-1.20432 1.51137,-1.60463 1.10043,-0.46767 2.27765,-0.55712 3.28743,-0.0663 0.71888,0.35305 1.34771,0.98131 1.67704,1.67552 0.37438,0.78918 0.42032,2.01209 0.10697,2.84747 -0.28223,0.75242 -1.02236,1.55437 -1.77389,1.92206 -0.44535,0.21789 -0.71973,0.27614 -1.41095,0.29953 -0.53124,0.018 -1.01713,-0.0229 -1.27566,-0.10727 z"
       id="path5191"
       sodipodi:nodetypes="ccsscsscsssscsccsscscccscssscsscscssscccsscscsccscccssssssscccccsccssccssccccssccscsscccsscsccsccsssssscsccsssssscscsccsccsscscccsscsscsccsccsscscccsscsscccccsccccscssccccccccccccscssscsccccccccsscscccccscssscsccccccccccccccsscsscscccccssccsscccc" />
    <path
       style="fill:#64a420;fill-opacity:1;stroke-width:0.353553"
       d="m 524.28902,302.08307 -16.26764,-0.19468 -2.74124,-1.56873 c -5.29735,-3.03153 -9.03508,-6.92074 -11.38337,-11.84473 -1.09629,-2.29873 -1.65816,-3.97332 -3.17155,-9.45242 -0.35408,-1.28189 -1.55235,-3.51698 -3.31894,-6.19069 -7.41251,-11.2187 -13.63501,-24.04199 -17.81081,-36.70436 -6.31838,-19.15941 -7.60151,-36.70887 -3.60821,-49.34988 0.47486,-1.5032 1.13959,-3.06564 1.47717,-3.47208 l 0.61378,-0.73899 2.82843,0.93636 c 4.11197,1.36128 10.8321,1.58378 15.02314,0.49741 7.85131,-2.03516 13.91192,-6.98998 17.21281,-14.07224 l 1.19307,-2.55982 3.31594,-1.61311 3.31594,-1.61311 2.08518,0.87764 c 5.46922,2.30196 12.83847,2.59564 18.42945,0.73443 3.7216,-1.2389 6.41012,-2.87055 9.8004,-5.94781 2.64716,-2.40275 3.92328,-3.02292 6.26176,-3.0431 0.64066,-0.006 1.64647,0.53663 2.92015,1.57406 2.34881,1.91313 6.93833,4.18733 10.06146,4.98565 1.80014,0.46014 3.39247,0.55111 7.42462,0.42417 4.71708,-0.14851 5.3622,-0.25175 7.96144,-1.27412 1.55563,-0.61188 4.1804,-1.91014 5.83281,-2.88503 4.34055,-2.56081 4.51169,-2.51922 7.48242,1.81817 2.94043,4.29314 5.65962,6.68045 10.01929,8.79644 6.86948,3.33415 14.55759,3.75916 21.85848,1.20838 1.36576,-0.47717 2.79323,-0.86758 3.17216,-0.86758 1.02549,0 4.85906,2.87281 7.0198,5.26051 3.52217,3.89212 6.26712,9.57148 7.05353,14.59388 0.78251,4.99751 -0.0613,11.68787 -2.06926,16.40701 -0.89692,2.10795 -1.08185,2.31264 -2.38648,2.6416 -7.28976,1.83812 -11.38134,4.02971 -15.74497,8.43352 -3.34637,3.37718 -5.58801,7.17731 -7.1143,12.06045 -0.74055,2.36931 -0.82876,3.32928 -0.8284,9.01561 l 3.5e-4,6.36397 1.89881,5.41759 c 2.17609,6.20868 2.20687,6.90347 0.48055,10.84586 -1.38943,3.17304 -2.07864,6.57854 -2.56563,12.67736 -0.21467,2.68849 -0.70193,6.10664 -1.08279,7.59588 -2.3059,9.01662 -8.18981,15.49733 -17.47007,19.24206 l -2.82843,1.14131 -24.04163,0.0189 c -13.2229,0.0104 -31.36207,-0.0687 -40.30927,-0.17576 z"
       id="path5193"
       transform="matrix(0.26458333,0,0,0.26458333,391.35803,-354.03217)" />
  </g>
</svg>
