<?xml version="1.0" encoding="UTF-8" standalone="no"?>
<svg
   xmlns:dc="http://purl.org/dc/elements/1.1/"
   xmlns:cc="http://creativecommons.org/ns#"
   xmlns:rdf="http://www.w3.org/1999/02/22-rdf-syntax-ns#"
   xmlns:svg="http://www.w3.org/2000/svg"
   xmlns="http://www.w3.org/2000/svg"
   xmlns:sodipodi="http://sodipodi.sourceforge.net/DTD/sodipodi-0.dtd"
   xmlns:inkscape="http://www.inkscape.org/namespaces/inkscape"
   width="104.12413mm"
   height="105.06509mm"
   viewBox="0 0 104.12413 105.0651"
   version="1.1"
   id="svg8"
   inkscape:version="1.0.1 (0767f8302a, 2020-10-17)"
   sodipodi:docname="info.svg">
  <defs
     id="defs2" />
  <sodipodi:namedview
     id="base"
     pagecolor="#ffffff"
     bordercolor="#666666"
     borderopacity="1.0"
     inkscape:pageopacity="0.0"
     inkscape:pageshadow="2"
     inkscape:zoom="1"
     inkscape:cx="-232.11773"
     inkscape:cy="238.87012"
     inkscape:document-units="mm"
     inkscape:current-layer="layer1"
     inkscape:document-rotation="0"
     showgrid="false"
     inkscape:window-width="1853"
     inkscape:window-height="1145"
     inkscape:window-x="67"
     inkscape:window-y="27"
     inkscape:window-maximized="1" />
  <metadata
     id="metadata5">
    <rdf:RDF>
      <cc:Work
         rdf:about="">
        <dc:format>image/svg+xml</dc:format>
        <dc:type
           rdf:resource="http://purl.org/dc/dcmitype/StillImage" />
        <dc:title></dc:title>
      </cc:Work>
    </rdf:RDF>
  </metadata>
  <g
     inkscape:label="Layer 1"
     inkscape:groupmode="layer"
     id="layer1"
     transform="translate(-477.94772,397.78133)">
    <path
       style="fill:#000000;stroke-width:0.352778"
       id="path3052"
       d="" />
    <path
       style="fill:#000000;stroke-width:0.352778"
       id="path3050"
       d="" />
    <path
       style="fill:#000000;stroke-width:0.352778"
       id="path3048"
       d="" />
    <path
       style="fill:#2064a4;fill-opacity:1;stroke-width:0.352778"
       d="m 526.53361,-292.77329 c -18.96237,-1.48257 -34.74514,-12.24329 -43.52046,-29.67233 -1.49565,-2.97058 -3.6147,-9.58468 -4.26853,-13.32319 -1.56213,-8.93204 -0.82136,-18.15754 2.16698,-26.9875 6.03763,-17.84 21.97727,-31.33641 40.68312,-34.44721 5.08883,-0.84628 13.35658,-0.75099 17.99167,0.20736 11.14369,2.30407 19.26161,6.65526 27.20689,14.58283 12.76498,12.73651 17.84209,30.29022 14.0516,48.58229 -3.17909,15.3416 -13.86969,28.83162 -28.73488,36.25936 -2.98151,1.48978 -9.65426,3.54114 -13.40555,4.12117 -3.44029,0.53194 -9.6264,0.87615 -12.17084,0.67722 z m 11.31079,-13.19026 c 5.62313,-1.14592 11.63016,-3.82858 16.02949,-7.15857 4.19958,-3.17878 9.24359,-9.22143 11.58606,-13.8799 7.85207,-15.61548 4.76663,-34.45198 -7.68052,-46.88923 -8.25282,-8.24626 -19.06239,-12.22433 -30.91809,-11.37828 -7.40068,0.52813 -14.44813,3.23269 -20.78004,7.97465 -7.56876,5.66824 -13.02524,14.35676 -14.98647,23.86348 -3.14256,15.23291 2.88769,31.16983 15.26724,40.34871 3.02018,2.23932 7.21905,4.51952 10.47015,5.6858 6.11643,2.19419 14.47931,2.76466 21.01218,1.43334 z m -19.89504,-13.2835 c -0.12936,-0.12935 -0.23519,-1.15365 -0.23519,-2.27622 v -2.04104 l 2.20486,-0.10503 2.20486,-0.10503 0.0924,-13.73491 c 0.0723,-10.75371 -0.004,-13.79626 -0.35278,-14.01752 -0.24485,-0.15543 -1.19924,-0.28503 -2.12087,-0.288 l -1.67569,-0.005 v -2.12225 -2.12225 l 9.78958,0.0938 9.78958,0.0938 -0.12612,15.25888 c -0.0694,8.39239 -0.0267,15.6552 0.0949,16.13959 0.20488,0.81628 0.37539,0.8807 2.33099,0.8807 h 2.10995 v 2.29306 2.29305 h -11.93565 c -6.56461,0 -12.04148,-0.10583 -12.17083,-0.23518 z m 9.52839,-39.41478 c -2.09654,-0.58009 -4.57773,-2.89505 -5.39413,-5.03278 -0.89749,-2.35005 -0.55623,-5.70971 0.77194,-7.59945 1.69859,-2.41681 3.64667,-3.57519 6.29625,-3.7439 2.7879,-0.17752 4.47206,0.35445 6.27291,1.98141 3.53969,3.1979 3.94066,7.93222 0.98816,11.6674 -2.0518,2.59573 -5.55075,3.66373 -8.93513,2.72732 z"
       id="path5327" />
  </g>
</svg>
