<?xml version="1.0" encoding="UTF-8" standalone="no"?>
<svg
   xmlns:dc="http://purl.org/dc/elements/1.1/"
   xmlns:cc="http://creativecommons.org/ns#"
   xmlns:rdf="http://www.w3.org/1999/02/22-rdf-syntax-ns#"
   xmlns:svg="http://www.w3.org/2000/svg"
   xmlns="http://www.w3.org/2000/svg"
   xmlns:sodipodi="http://sodipodi.sourceforge.net/DTD/sodipodi-0.dtd"
   xmlns:inkscape="http://www.inkscape.org/namespaces/inkscape"
   width="117.42875mm"
   height="141.01065mm"
   viewBox="0 0 117.42874 141.01067"
   version="1.1"
   id="svg8"
   inkscape:version="1.0.1 (0767f8302a, 2020-10-17)"
   sodipodi:docname="settings2.svg">
  <defs
     id="defs2" />
  <sodipodi:namedview
     id="base"
     pagecolor="#ffffff"
     bordercolor="#666666"
     borderopacity="1.0"
     inkscape:pageopacity="0.0"
     inkscape:pageshadow="2"
     inkscape:zoom="1.4142136"
     inkscape:cx="-7.0069555"
     inkscape:cy="310.85646"
     inkscape:document-units="mm"
     inkscape:current-layer="layer1"
     inkscape:document-rotation="0"
     showgrid="false"
     inkscape:window-width="1853"
     inkscape:window-height="1145"
     inkscape:window-x="67"
     inkscape:window-y="27"
     inkscape:window-maximized="1" />
  <metadata
     id="metadata5">
    <rdf:RDF>
      <cc:Work
         rdf:about="">
        <dc:format>image/svg+xml</dc:format>
        <dc:type
           rdf:resource="http://purl.org/dc/dcmitype/StillImage" />
        <dc:title></dc:title>
      </cc:Work>
    </rdf:RDF>
  </metadata>
  <g
     inkscape:label="Layer 1"
     inkscape:groupmode="layer"
     id="layer1"
     transform="translate(-676.31991,325.7555)">
    <path
       style="fill:#000000;stroke-width:0.352778"
       id="path3052"
       d="" />
    <path
       style="fill:#000000;stroke-width:0.352778"
       id="path3050"
       d="" />
    <path
       style="fill:#000000;stroke-width:0.352778"
       id="path3048"
       d="" />
    <path
       style="fill:#2064a4;fill-opacity:1;stroke-width:0.352778"
       d="m 718.62043,-184.93058 c -6.02955,-0.94257 -11.79493,-5.08751 -14.3579,-10.3224 l -1.16156,-2.37248 h -10.32789 c -12.10556,0 -13.17601,-0.17893 -15.19727,-2.54032 -1.215,-1.41945 -1.2559,-1.56019 -1.2559,-4.32196 0,-2.644 0.0772,-2.94842 1.0461,-4.12384 1.96426,-2.38299 2.18374,-2.41943 14.5697,-2.41943 h 11.09946 l 0.57851,-1.49931 c 0.78921,-2.04534 3.38826,-5.44584 5.4221,-7.09409 3.72858,-3.02169 7.91755,-4.46211 12.95478,-4.45466 7.38072,0.0109 13.77361,3.91409 17.25176,10.53301 l 1.32162,2.51505 h 24.03466 c 23.77122,0 24.05161,0.008 25.58043,0.74829 2.01557,0.97572 3.25172,2.85195 3.49115,5.29883 0.2507,2.56206 -0.85038,4.65211 -3.22609,6.12371 l -1.70854,1.05833 -24.19324,0.0997 -24.19323,0.0997 -0.98416,2.10724 c -1.14759,2.45715 -4.46749,6.15234 -6.97061,7.75859 -3.54054,2.27195 -9.467,3.4793 -13.77388,2.80602 z m 42.59298,-51.33219 c -5.34666,-1.35026 -9.93252,-5.0062 -12.48878,-9.95631 l -1.32,-2.55612 -33.17455,-0.002 -33.17456,-0.002 -1.57121,-0.79375 c -2.39657,-1.21071 -3.1644,-2.63048 -3.1644,-5.85117 0,-3.12127 0.68959,-4.45127 2.99255,-5.7717 l 1.41717,-0.81255 33.40986,-0.17638 33.40986,-0.17639 1.13812,-2.29306 c 0.71456,-1.43969 2.0238,-3.1833 3.518,-4.68519 6.52457,-6.55815 16.92177,-7.68626 24.72001,-2.68214 2.42688,1.55732 5.61778,5.13137 6.82496,7.64446 0.99407,2.06944 1.11415,2.18328 2.30753,2.18768 4.7786,0.0176 8.12635,3.3611 7.64463,7.63492 -0.37011,3.28363 -2.91135,5.49828 -6.57188,5.7273 l -2.33164,0.14588 -1.18236,2.44812 c -1.24263,2.5729 -3.991,5.65911 -6.63037,7.44539 -0.8045,0.54447 -2.63013,1.40044 -4.05695,1.90214 -3.24379,1.14058 -8.54741,1.42211 -11.71599,0.6219 z m -60.93743,-50.62058 c -6.00523,-0.93877 -11.37377,-4.7896 -14.21489,-10.19626 -1.24584,-2.37083 -1.37618,-2.49862 -2.54864,-2.49862 -1.72358,0 -4.06038,-0.64209 -4.90252,-1.34708 -1.89321,-1.58488 -2.29002,-2.51211 -2.29002,-5.3511 0,-2.23711 0.14202,-2.93618 0.7966,-3.92117 1.08469,-1.63222 3.46875,-2.7862 5.75611,-2.7862 h 1.8171 l 1.16571,-2.38125 c 1.66243,-3.39592 5.31212,-6.96282 8.96552,-8.76214 3.69229,-2.12676 11.73957,-1.89965 15.18277,-0.85321 4.62055,1.53762 8.49275,4.91167 10.90491,9.50201 l 1.31087,2.49459 h 33.1532 c 36.14621,0 34.5727,-0.0865 36.51277,2.00689 2.5508,2.75236 2.43385,7.05882 -0.25892,9.53466 -2.07128,1.9044 -1.24873,1.86221 -36.76974,1.88609 l -32.85218,0.0221 -1.15649,2.35916 c -3.53015,7.20122 -12.29424,11.58559 -20.57216,10.29154 z"
       id="path5947"
       sodipodi:nodetypes="sscssscscsssscscsscccsssscscccssscccssssssscssscccsssscscsccscsssscscc" />
  </g>
</svg>
