<?xml version="1.0" encoding="UTF-8" standalone="no"?>
<svg
   xmlns:dc="http://purl.org/dc/elements/1.1/"
   xmlns:cc="http://creativecommons.org/ns#"
   xmlns:rdf="http://www.w3.org/1999/02/22-rdf-syntax-ns#"
   xmlns:svg="http://www.w3.org/2000/svg"
   xmlns="http://www.w3.org/2000/svg"
   xmlns:sodipodi="http://sodipodi.sourceforge.net/DTD/sodipodi-0.dtd"
   xmlns:inkscape="http://www.inkscape.org/namespaces/inkscape"
   width="140.95262mm"
   height="141.49019mm"
   viewBox="0 0 140.95261 141.49021"
   version="1.1"
   id="svg8"
   inkscape:version="1.0.1 (0767f8302a, 2020-10-17)"
   sodipodi:docname="settings.svg">
  <defs
     id="defs2" />
  <sodipodi:namedview
     id="base"
     pagecolor="#ffffff"
     bordercolor="#666666"
     borderopacity="1.0"
     inkscape:pageopacity="0.0"
     inkscape:pageshadow="2"
     inkscape:zoom="1.4142136"
     inkscape:cx="273.27011"
     inkscape:cy="377.81075"
     inkscape:document-units="mm"
     inkscape:current-layer="layer1"
     inkscape:document-rotation="0"
     showgrid="false"
     inkscape:window-width="1853"
     inkscape:window-height="1145"
     inkscape:window-x="67"
     inkscape:window-y="27"
     inkscape:window-maximized="1" />
  <metadata
     id="metadata5">
    <rdf:RDF>
      <cc:Work
         rdf:about="">
        <dc:format>image/svg+xml</dc:format>
        <dc:type
           rdf:resource="http://purl.org/dc/dcmitype/StillImage" />
        <dc:title></dc:title>
      </cc:Work>
    </rdf:RDF>
  </metadata>
  <g
     inkscape:label="Layer 1"
     inkscape:groupmode="layer"
     id="layer1"
     transform="translate(-566.40674,354.91427)">
    <path
       style="fill:#000000;stroke-width:0.352778"
       id="path3052"
       d="" />
    <path
       style="fill:#000000;stroke-width:0.352778"
       id="path3050"
       d="" />
    <path
       style="fill:#000000;stroke-width:0.352778"
       id="path3048"
       d="" />
    <path
       style="fill:#2064a4;fill-opacity:1;stroke-width:0.352778"
       d="m 584.02937,-214.07309 c -2.65172,-0.93771 -4.95968,-2.47464 -8.28256,-5.51558 -3.69867,-3.38484 -6.93957,-7.29759 -8.15642,-9.84727 -1.29995,-3.49155 -1.75551,-8.59079 -0.19393,-11.7051 0.57124,-1.12225 3.49355,-4.29481 8.97624,-9.74493 4.47109,-4.44453 8.33651,-8.2194 8.58982,-8.38861 0.25331,-0.1692 1.51263,-0.20955 2.7985,-0.0897 1.83779,0.17135 2.59249,0.0876 3.52778,-0.3915 0.65441,-0.33522 3.99172,-3.38002 7.41625,-6.76622 l 6.22641,-6.15674 0.12683,-4.28954 c 0.18515,-6.26171 1.37065,-8.34648 4.74624,-8.34648 1.7965,0 2.39611,0.40346 6.31021,4.24599 l 3.52778,3.46326 24.00935,-23.87476 24.00935,-23.87476 5.20026,-10.20428 c 2.86014,-5.61235 5.4703,-10.41327 5.80037,-10.66871 0.33006,-0.25544 3.59699,-2.13258 7.25985,-4.17142 l 6.65974,-3.70698 c 1.58306,-0.91398 3.73321,-1.22884 4.96205,0 l 4.38249,4.32153 c 2.41038,2.37684 4.62485,4.78405 4.92106,5.34937 1.13776,2.17145 0.56026,4.01129 -3.57037,11.37477 -2.08508,3.71699 -4.13451,7.07857 -4.55428,7.47017 -0.41976,0.3916 -5.16063,2.95258 -10.53524,5.69108 l -9.77204,4.97908 -23.97921,24.06127 -23.97921,24.06127 3.85333,3.9434 3.85333,3.94341 v 1.76414 c 0,3.56312 -2.57555,4.99328 -8.99231,4.99328 h -3.57258 l -6.40148,6.46113 c -3.52081,3.55363 -6.57913,6.92707 -6.79627,7.49653 -0.2367,0.62079 -0.30971,1.9536 -0.18233,3.32845 0.11686,1.26118 0.0887,2.47653 -0.0625,2.70078 -0.15124,0.22426 -3.87608,4.06602 -8.27741,8.53727 -9.35119,9.49973 -10.05342,9.98416 -14.75119,10.17617 -2.3744,0.097 -3.43562,-0.032 -5.09788,-0.6198 z m 62.55525,-76.35692 c 9.65406,-9.70138 19.93997,-20.07833 22.85756,-23.05988 l 5.30472,-5.421 10.19503,-5.18044 10.19503,-5.18044 3.57,-6.32694 3.57001,-6.32695 -3.63777,-3.70443 -3.63777,-3.70443 -1.87251,0.95236 c -2.09287,1.06443 -7.0079,3.77144 -9.40751,5.18129 -1.50671,0.88525 -1.78926,1.34896 -6.78425,11.1341 l -5.21205,10.21038 -7.16768,7.05419 c -3.94223,3.8798 -14.8322,14.67102 -24.19992,23.98048 l -17.03224,16.92629 1.67142,1.69693 1.67141,1.69693 1.18184,-1.14477 c 0.65001,-0.62963 9.08062,-9.08228 18.73468,-18.78367 z m 25.09262,72.65422 c -1.26118,-0.27009 -3.7893,-1.23068 -5.61804,-2.13465 -2.70826,-1.33872 -3.85333,-2.17485 -6.17361,-4.50796 -3.28697,-3.30516 -4.80965,-5.71419 -6.24636,-9.88237 -1.83153,-5.31364 -2.02582,-11.18222 -0.53305,-16.10167 l 0.47786,-1.57479 -7.35757,-7.42709 c -6.52623,-6.5879 -7.35756,-7.55595 -7.35756,-8.56763 0,-1.00817 0.76189,-1.90668 6.56515,-7.74235 6.79867,-6.83664 7.95472,-7.83029 9.1147,-7.83422 0.42442,-10e-4 3.5331,2.83276 8.13696,7.41849 l 7.45015,7.42082 2.0936,-0.56746 c 3.37247,-0.91409 9.06974,-1.07484 12.33644,-0.34806 9.32507,2.07463 16.83122,8.7076 19.57143,17.29472 0.98477,3.08601 1.34163,9.40583 0.71251,12.61822 -0.64373,3.28698 -1.75523,6.3539 -2.55473,7.04914 -0.39046,0.33955 -1.19191,0.61736 -1.78099,0.61736 -0.91941,0 -2.05863,-0.97973 -8.04661,-6.92015 l -6.97555,-6.92015 -4.56048,4.5856 -4.56048,4.5856 6.82534,6.85065 c 5.56689,5.58755 6.82533,7.03045 6.82533,7.8258 0,1.56937 -0.58267,2.2432 -2.58877,2.99378 -4.70949,1.76205 -11.0624,2.27347 -15.75567,1.26837 z m -60.83453,-77.02626 -7.07519,-7.01789 -1.3184,0.47147 c -2.27666,0.81414 -7.46099,1.22442 -10.56062,0.83576 -6.50609,-0.8158 -11.17166,-3.09567 -15.82404,-7.73257 -4.27006,-4.25585 -6.29576,-8.3552 -7.04151,-14.24973 -0.43875,-3.46795 0.0275,-7.99521 1.20551,-11.70471 1.03915,-3.2723 1.66503,-4.03167 3.32294,-4.03167 1.15005,0 1.79098,0.54037 8.15558,6.87608 l 6.90743,6.87608 4.56959,-4.57975 4.56959,-4.57975 -6.95901,-6.99074 c -6.35651,-6.3855 -6.95853,-7.0959 -6.9536,-8.20536 0.003,-0.66804 0.12204,-1.3909 0.26459,-1.60636 0.76145,-1.15092 6.11961,-2.69937 10.84251,-3.13336 12.43742,-1.14288 24.35635,8.6375 26.66213,21.87828 0.50337,2.89056 0.24622,8.77248 -0.50086,11.45654 l -0.54006,1.94028 7.38592,7.42709 c 6.32719,6.36245 7.38592,7.57908 7.38592,8.48743 0,0.58319 -0.19844,1.31954 -0.44097,1.63633 -0.24254,0.31679 -3.61597,3.36155 -7.49653,6.76614 -6.20405,5.44309 -7.2022,6.19065 -8.27064,6.19422 -1.10897,0.004 -1.83301,-0.60885 -8.29028,-7.01381 z"
       id="path5854"
       sodipodi:nodetypes="csccsscsscssscccsssccssssscccccsscssscscccsscccccccssscsscccssssssscssscscssssssscccssssscsssscsscccsccssscsssscs" />
  </g>
</svg>
