<?xml version="1.0" encoding="UTF-8" standalone="no"?>
<svg
   xmlns:dc="http://purl.org/dc/elements/1.1/"
   xmlns:cc="http://creativecommons.org/ns#"
   xmlns:rdf="http://www.w3.org/1999/02/22-rdf-syntax-ns#"
   xmlns:svg="http://www.w3.org/2000/svg"
   xmlns="http://www.w3.org/2000/svg"
   xmlns:sodipodi="http://sodipodi.sourceforge.net/DTD/sodipodi-0.dtd"
   xmlns:inkscape="http://www.inkscape.org/namespaces/inkscape"
   width="140.69878mm"
   height="135.32747mm"
   viewBox="0 0 140.69877 135.32749"
   version="1.1"
   id="svg8"
   inkscape:version="1.0.1 (0767f8302a, 2020-10-17)"
   sodipodi:docname="timestamp.svg">
  <defs
     id="defs2" />
  <sodipodi:namedview
     id="base"
     pagecolor="#ffffff"
     bordercolor="#666666"
     borderopacity="1.0"
     inkscape:pageopacity="0.0"
     inkscape:pageshadow="2"
     inkscape:zoom="0.35355339"
     inkscape:cx="726.54889"
     inkscape:cy="533.92652"
     inkscape:document-units="mm"
     inkscape:current-layer="layer1"
     inkscape:document-rotation="0"
     showgrid="false"
     inkscape:window-width="1853"
     inkscape:window-height="1145"
     inkscape:window-x="67"
     inkscape:window-y="27"
     inkscape:window-maximized="1" />
  <metadata
     id="metadata5">
    <rdf:RDF>
      <cc:Work
         rdf:about="">
        <dc:format>image/svg+xml</dc:format>
        <dc:type
           rdf:resource="http://purl.org/dc/dcmitype/StillImage" />
        <dc:title></dc:title>
      </cc:Work>
    </rdf:RDF>
  </metadata>
  <g
     inkscape:label="Layer 1"
     inkscape:groupmode="layer"
     id="layer1"
     transform="translate(-636.25915,307.4737)">
    <path
       style="fill:#000000;stroke-width:0.352778"
       id="path3052"
       d="" />
    <path
       style="fill:#000000;stroke-width:0.352778"
       id="path3050"
       d="" />
    <path
       style="fill:#000000;stroke-width:0.352778"
       id="path3048"
       d="" />
    <path
       style="fill:#2064a4;fill-opacity:1;stroke-width:0.352778"
       d="m 731.15636,-172.24676 c -2.90976,-0.56024 -7.96418,-2.72793 -13.20692,-5.66406 -1.33318,-0.74662 -5.73181,-4.79278 -7.59091,-6.98263 -2.52741,-2.97705 -2.57112,-3.04549 -4.73074,-7.40833 -2.05247,-4.14636 -2.61345,-5.70305 -2.8797,-7.99095 -0.12077,-1.03775 -0.38388,-2.22649 -0.5847,-2.64164 -0.54458,-1.1258 -0.1325,-13.60825 0.52292,-15.83963 0.71315,-2.42794 1.58355,-4.96536 1.96024,-5.71455 0.17189,-0.34186 0.62946,-1.33594 1.01684,-2.20906 0.38737,-0.87313 1.28114,-2.34294 1.98614,-3.26625 0.70501,-0.92331 1.28184,-1.77026 1.28184,-1.88211 0,-0.44208 4.49885,-5.23201 6.05086,-6.44234 3.48397,-2.71698 5.56879,-4.04479 7.91792,-5.04287 1.33946,-0.56911 2.67872,-1.16668 2.97613,-1.32795 0.29741,-0.16126 1.09116,-0.40202 1.76389,-0.535 0.67272,-0.13299 1.54064,-0.38581 1.92869,-0.56183 3.15807,-1.43246 16.78272,-1.43779 19.75556,-0.008 0.38805,0.18667 1.41278,0.51966 2.27716,0.73997 1.30984,0.33385 5.14322,2.16514 9.50281,4.53972 1.54059,0.83912 8.32838,7.84046 9.60368,9.90582 1.24268,2.01253 3.80149,7.14977 4.48074,8.99584 1.01106,2.74786 1.76912,8.03863 1.76912,12.34722 0,4.34873 -0.77641,9.72823 -1.68022,11.64166 -0.1833,0.38806 -0.57771,1.59105 -0.87646,2.67331 -0.29875,1.08227 -0.94357,2.55776 -1.43293,3.27887 -0.48935,0.7211 -0.88974,1.42911 -0.88974,1.57334 0,0.14423 -0.46979,0.81187 -1.04399,1.48364 -0.5742,0.67177 -1.05045,1.42829 -1.05834,1.68117 -0.0184,0.58908 -7.89071,8.53606 -8.45589,8.53606 -0.23373,0 -0.93031,0.38061 -1.54795,0.84579 -1.71403,1.29092 -5.95549,3.34631 -8.98605,4.35458 -2.55974,0.85163 -3.19911,0.91049 -10.83416,0.99739 -4.46264,0.0508 -8.51077,0.0159 -8.99584,-0.0775 z m 13.58195,-8.235 c 0.19403,-0.14451 0.98778,-0.37448 1.76389,-0.51105 1.60217,-0.28192 8.29027,-3.33345 8.29027,-3.78255 0,-0.16196 0.22758,-0.29448 0.50573,-0.29448 0.62962,0 6.02789,-5.08816 7.35185,-6.92951 2.42617,-3.37429 4.48965,-7.50654 4.48965,-8.9908 0,-0.28552 0.16732,-0.68645 0.37182,-0.89096 0.7607,-0.76069 1.20045,-7.01381 0.76641,-10.89794 -0.22492,-2.01277 -0.56041,-3.94379 -0.74554,-4.29115 -0.18512,-0.34737 -0.7803,-1.74283 -1.32261,-3.10102 -1.50741,-3.77521 -3.59528,-6.75608 -7.06897,-10.09241 -3.27006,-3.14076 -3.54102,-3.33508 -7.0252,-5.03818 -1.1471,-0.56071 -2.48251,-1.22083 -2.96758,-1.46694 -0.48507,-0.2461 -1.51694,-0.5621 -2.29306,-0.70221 -0.77611,-0.14012 -1.63235,-0.43117 -1.90275,-0.64679 -0.67027,-0.53446 -9.19309,-0.48917 -11.00749,-0.003 -4.66495,0.86521 -6.55219,1.6092 -9.45524,3.70045 -1.90485,1.16352 -5.68315,4.42799 -6.74586,5.67688 -4.16236,4.89154 -7.1512,10.32828 -7.64503,15.47804 -1.13748,4.09228 -0.34307,5.63107 0.0942,9.22521 0.20064,1.6834 0.96687,3.33268 1.15039,3.68657 0.1835,0.35388 0.82829,1.6753 1.43285,2.93648 1.25571,2.61956 1.59975,3.20203 2.94633,4.98827 0.53358,0.70778 0.97014,1.41733 0.97014,1.57677 0,0.4007 3.24935,3.66552 3.64815,3.66552 0.17781,0 0.94203,0.55899 1.69827,1.24222 0.75624,0.68322 2.60111,1.81686 4.0997,2.5192 1.49859,0.70234 3.04222,1.44052 3.43027,1.64039 0.81608,0.42034 4.14752,1.23812 6.70278,1.64537 1.95323,0.31129 7.91252,0.0703 8.46666,-0.34244 z m -5.64445,-23.63808 c -0.11991,-0.19402 -0.67192,-0.35277 -1.22669,-0.35277 -1.57646,0 -2.1013,-0.33504 -2.86262,-1.82735 -0.67414,-1.32142 -0.70284,-1.95681 -0.60233,-13.33412 l 0.10553,-11.94657 0.85525,-0.90987 c 0.75344,-0.80157 1.13535,-0.90987 3.20852,-0.90987 3.97345,0 4.22651,0.68344 4.22651,11.41445 0,6.02745 0.11708,8.35678 0.44097,8.77319 0.37398,0.48082 1.55854,0.5861 7.79743,0.69305 l 7.35645,0.1261 1.06087,1.18732 c 0.97457,1.09073 1.04878,1.35446 0.91227,3.24172 -0.17955,2.4822 -0.93391,3.49195 -2.60879,3.49195 -0.63758,0 -1.25734,0.15875 -1.37726,0.35277 -0.1355,0.21926 -3.4069,0.35278 -8.64305,0.35278 -5.23615,0 -8.50755,-0.13352 -8.64306,-0.35278 z m -101.86457,2.41535 -0.97014,-0.35748 v -52.49334 -52.49334 l 0.79375,-0.21272 c 0.43656,-0.11699 29.05125,-0.21254 63.58819,-0.21233 49.5068,3e-4 62.98106,0.0936 63.67638,0.44106 0.48507,0.24238 1.15951,0.9941 1.49876,1.6705 0.57137,1.1392 0.61685,3.24868 0.61736,28.63121 l 7.1e-4,27.40141 -0.9133,1.0854 c -0.84024,0.99837 -1.08989,1.0854 -3.11367,1.0854 -1.90886,0 -2.31345,-0.12052 -3.05545,-0.91013 l -0.85524,-0.91013 -0.17639,-24.51849 c -0.1709,-23.75597 -0.19768,-24.53406 -0.86117,-25.01904 -0.58453,-0.42725 -8.93114,-0.50054 -57.00713,-0.50054 -54.11614,0 -56.34521,0.0253 -56.90618,0.64514 -0.53662,0.59295 -0.58384,4.15791 -0.58384,44.07202 0,39.00861 0.0564,43.48328 0.55436,43.98125 0.49369,0.49368 3.33003,0.55436 25.91257,0.55436 19.52155,0 25.58531,0.10147 26.34494,0.44086 1.79981,0.80413 2.22423,1.62276 2.13032,4.10898 -0.0762,2.01769 -0.19076,2.33539 -1.08113,2.99861 -0.99137,0.73847 -1.12615,0.74211 -29.80972,0.80532 -18.74769,0.0413 -29.15276,-0.0614 -29.78398,-0.29398 z m 20.54393,-21.33763 c -2.32538,-2.2581 -4.22796,-4.32051 -4.22796,-4.58313 -3.10052,-3.10052 -2.17065,-6.51376 -0.12989,-7.49602 1.20288,-0.54807 3.50458,-0.49507 4.64533,0.10697 0.52394,0.27651 1.98449,1.55787 3.24567,2.84747 1.26118,1.28959 2.58668,2.50615 2.94556,2.70346 0.55908,0.30739 1.56925,-0.54942 7.05555,-5.98439 6.51537,-6.4544 7.84461,-7.47763 9.71396,-7.47763 2.41435,0 4.26968,1.77003 4.2725,4.07607 0.002,1.82886 -1.73411,3.93108 -9.96397,12.06351 l -7.94334,7.84931 c -1.61614,1.61614 -4.0314,1.35406 -5.38546,0 z m 4.06232,-22.65576 c -0.58209,-0.35925 -3.00302,-2.65679 -5.37986,-5.10563 l -4.32153,-4.45245 c -2.33368,-2.33368 -0.29555,-4.65568 0.92952,-5.63549 2.37759,-1.48403 4.45732,-1.12962 5.91411,0.32717 0.22398,0 1.50997,1.11125 2.85776,2.46945 1.34778,1.35819 2.61523,2.46944 2.81654,2.46944 0.20131,0 3.14074,-2.77812 6.53207,-6.17361 3.39132,-3.39548 6.34675,-6.17361 6.5676,-6.17361 0.22086,0 0.59919,-0.23812 0.84073,-0.52916 0.3054,-0.36799 1.11668,-0.52917 2.66342,-0.52917 1.98856,0 2.30255,0.0995 2.96309,0.93926 0.96168,1.22259 1.20988,2.28824 0.91154,3.91375 -0.20702,1.12804 -1.46011,2.54612 -8.59368,9.72526 -4.59322,4.62256 -8.77999,8.63099 -9.30393,8.90764 -1.35306,0.71441 -4.11912,0.63608 -5.39738,-0.15285 z m 26.81111,-5.41471 c -1.25842,-0.7217 -1.56487,-1.47292 -1.57629,-3.86408 -0.0105,-2.2006 0.0582,-2.40831 1.08173,-3.26954 l 1.09294,-0.91965 27.3347,0.0945 27.3347,0.0945 1.0293,1.1521 c 0.89212,0.99854 1.0293,1.43107 1.0293,3.24524 0,1.95905 -0.0756,2.1508 -1.17983,2.99304 l -1.17982,0.8999 -27.13059,-0.0107 c -19.74226,-0.008 -27.32273,-0.12091 -27.83614,-0.41536 z m -26.45834,-21.00568 c -0.58208,-0.29867 -3.08239,-2.57203 -5.55624,-5.05191 l -4.49792,-4.50888 c -1.77999,-1.78433 -0.26014,-4.76616 0.93346,-5.88956 0.69811,-0.64699 1.32656,-0.8651 2.49263,-0.8651 2.07673,0 2.60689,0.31822 5.99109,3.59597 2.67916,2.5949 2.95033,2.76852 3.70416,2.37175 0.44736,-0.23547 3.44435,-3.06359 6.65998,-6.28472 3.21563,-3.22114 6.33575,-6.13442 6.9336,-6.47397 2.89828,-1.64608 6.44619,0.29645 6.44619,3.52939 0,0.55373 -0.456,1.71255 -1.01334,2.57515 -1.3498,2.08914 -15.77005,16.29061 -17.29711,17.03469 -1.45887,0.71086 -3.37267,0.69777 -4.7965,-0.0328 z m 25.95624,-5.93986 c -1.0148,-0.85389 -1.0854,-1.06836 -1.0854,-3.29672 0,-4.10508 -2.98402,-3.72748 29.45694,-3.72748 32.44096,0 29.45694,-0.3776 29.45694,3.72748 0,2.22836 -0.0706,2.44283 -1.0854,3.29672 l -1.0854,0.9133 h -27.28614 -27.28614 z"
       id="path6047"
       sodipodi:nodetypes="cssssssssssssssccssssssssssssssscccssssscsssssssscccccsssssssssccsssscssssscsssssssccccssscccsscssscsssssssssccssssscsccssscccssssssscscscsscccsssccccssscscsssscsssssssscccs" />
  </g>
</svg>
