<?xml version="1.0" encoding="UTF-8" standalone="no"?>
<svg
   xmlns:dc="http://purl.org/dc/elements/1.1/"
   xmlns:cc="http://creativecommons.org/ns#"
   xmlns:rdf="http://www.w3.org/1999/02/22-rdf-syntax-ns#"
   xmlns:svg="http://www.w3.org/2000/svg"
   xmlns="http://www.w3.org/2000/svg"
   xmlns:sodipodi="http://sodipodi.sourceforge.net/DTD/sodipodi-0.dtd"
   xmlns:inkscape="http://www.inkscape.org/namespaces/inkscape"
   width="104.98093mm"
   height="105.4369mm"
   viewBox="0 0 104.98093 105.43691"
   version="1.1"
   id="svg8"
   inkscape:version="1.0.1 (0767f8302a, 2020-10-17)"
   sodipodi:docname="move.svg">
  <defs
     id="defs2" />
  <sodipodi:namedview
     id="base"
     pagecolor="#ffffff"
     bordercolor="#666666"
     borderopacity="1.0"
     inkscape:pageopacity="0.0"
     inkscape:pageshadow="2"
     inkscape:zoom="1.4"
     inkscape:cx="-44.341784"
     inkscape:cy="311.09398"
     inkscape:document-units="mm"
     inkscape:current-layer="layer1"
     inkscape:document-rotation="0"
     showgrid="false"
     inkscape:window-width="1853"
     inkscape:window-height="1145"
     inkscape:window-x="67"
     inkscape:window-y="27"
     inkscape:window-maximized="1" />
  <metadata
     id="metadata5">
    <rdf:RDF>
      <cc:Work
         rdf:about="">
        <dc:format>image/svg+xml</dc:format>
        <dc:type
           rdf:resource="http://purl.org/dc/dcmitype/StillImage" />
        <dc:title></dc:title>
      </cc:Work>
    </rdf:RDF>
  </metadata>
  <g
     inkscape:label="Layer 1"
     inkscape:groupmode="layer"
     id="layer1"
     transform="translate(-59.519342,-11.63201)">
    <path
       style="fill:#2064a4;fill-opacity:1;stroke-width:0.352778"
       d="m 102.04928,106.66152 -9.779867,-10.503149 6.516675,-0.096 6.516672,-0.096 v -12.163 -12.16305 H 92.963497 80.624232 l -0.09615,6.31853 -0.09615,6.31852 -10.406945,-9.7186 c -5.723825,-5.34524 -10.451155,-9.829314 -10.505182,-9.964618 -0.05403,-0.135301 4.629098,-4.66362 10.406945,-10.062931 l 10.505177,-9.81693 0.09615,6.407456 0.09615,6.407458 H 92.787109 104.94998 V 45.36633 33.203454 l -6.398683,-0.09615 -6.398686,-0.09615 9.990739,-10.689572 9.99073,-10.689572 1.14632,1.164571 c 0.63048,0.640514 5.12701,5.450822 9.99228,10.689572 l 8.84596,9.525001 -6.35238,0.09615 -6.35239,0.09615 V 45.36633 57.529206 h 12.17084 12.17083 v -6.546741 -6.546742 l 10.42469,9.773586 c 7.29804,6.842224 10.39291,9.96532 10.31875,10.412847 -0.0583,0.351593 -4.70969,4.932935 -10.33649,10.180755 l -10.23056,9.5415 -0.0961,-6.35205 -0.0961,-6.35204 h -12.16288 -12.16288 v 12.16287 12.16288 l 6.34178,0.0962 6.34177,0.0961 -9.69222,10.406949 c -5.33072,5.72382 -9.89108,10.45023 -10.13413,10.50315 -0.24306,0.0529 -4.84286,-4.63022 -10.22179,-10.40695 z"
       id="path2776" />
  </g>
</svg>
