<?xml version="1.0" encoding="UTF-8" standalone="no"?>
<!-- Created with Inkscape (http://www.inkscape.org/) -->

<svg
   xmlns:dc="http://purl.org/dc/elements/1.1/"
   xmlns:cc="http://creativecommons.org/ns#"
   xmlns:rdf="http://www.w3.org/1999/02/22-rdf-syntax-ns#"
   xmlns:svg="http://www.w3.org/2000/svg"
   xmlns="http://www.w3.org/2000/svg"
   xmlns:sodipodi="http://sodipodi.sourceforge.net/DTD/sodipodi-0.dtd"
   xmlns:inkscape="http://www.inkscape.org/namespaces/inkscape"
   width="105.65695mm"
   height="105.83334mm"
   viewBox="0 0 105.65695 105.83334"
   version="1.1"
   id="svg8"
   inkscape:version="0.92.5 (2060ec1f9f, 2020-04-08)"
   sodipodi:docname="playback_toend.svg">
  <defs
     id="defs2" />
  <sodipodi:namedview
     id="base"
     pagecolor="#ffffff"
     bordercolor="#666666"
     borderopacity="1.0"
     inkscape:pageopacity="0.0"
     inkscape:pageshadow="2"
     inkscape:zoom="0.7"
     inkscape:cx="619.55682"
     inkscape:cy="170.18433"
     inkscape:document-units="mm"
     inkscape:current-layer="layer1"
     showgrid="false"
     inkscape:window-width="1848"
     inkscape:window-height="1016"
     inkscape:window-x="72"
     inkscape:window-y="27"
     inkscape:window-maximized="1" />
  <metadata
     id="metadata5">
    <rdf:RDF>
      <cc:Work
         rdf:about="">
        <dc:format>image/svg+xml</dc:format>
        <dc:type
           rdf:resource="http://purl.org/dc/dcmitype/StillImage" />
        <dc:title></dc:title>
      </cc:Work>
    </rdf:RDF>
  </metadata>
  <g
     inkscape:label="Layer 1"
     inkscape:groupmode="layer"
     id="layer1"
     transform="translate(21.372325,-11.282062)">
    <path
       style="fill:#1f63a3;fill-opacity:1;stroke-width:0.35277781"
       d="m -20.336187,116.03387 -1.03614,-1.0815 V 64.724294 14.496224 l 1.18315,-1.2207 c 1.42095,-1.46606 3.42511,-2.07661 5.204099,-1.58541 1.00386,0.27718 78.148631,45.137282 82.791116,48.14348 1.835129,1.18833 2.71732,2.75341 2.71894,4.8236 10e-4,1.7891 -0.55739,3.2169 -1.63826,4.18606 -0.35941,0.32227 -18.981304,11.31533 -41.381974,24.42903 l -40.728491,23.843086 h -3.03815 c -2.92968,0 -3.07514,-0.0386 -4.07429,-1.0815 z m 95.892214,-0.065 c -0.60825,-0.63059 -1.274389,-1.59342 -1.48032,-2.13963 -0.257399,-0.68274 -0.37441,-16.148855 -0.37441,-49.488416 0,-39.93256 0.0841,-48.69673 0.476611,-49.63602 0.262149,-0.62739 1.06142,-1.65417 1.776169,-2.28173 1.095351,-0.96172 1.577531,-1.14101 3.06868,-1.14101 2.02158,0 3.463571,0.6312 4.52516,1.9808 l 0.73671,0.93657 v 50.25854 50.258536 l -1.199439,1.19944 c -1.148071,1.14807 -1.311321,1.19945 -3.811361,1.19945 -2.48473,0 -2.665749,-0.0558 -3.7178,-1.14653 z"
       id="path3950"
       inkscape:connector-curvature="0" />
  </g>
</svg>
