<?xml version="1.0" encoding="UTF-8" standalone="no"?>
<svg
   xmlns:dc="http://purl.org/dc/elements/1.1/"
   xmlns:cc="http://creativecommons.org/ns#"
   xmlns:rdf="http://www.w3.org/1999/02/22-rdf-syntax-ns#"
   xmlns:svg="http://www.w3.org/2000/svg"
   xmlns="http://www.w3.org/2000/svg"
   xmlns:sodipodi="http://sodipodi.sourceforge.net/DTD/sodipodi-0.dtd"
   xmlns:inkscape="http://www.inkscape.org/namespaces/inkscape"
   width="141.1115mm"
   height="141.11232mm"
   viewBox="0 0 141.11149 141.11234"
   version="1.1"
   id="svg8"
   inkscape:version="1.0.1 (0767f8302a, 2020-10-17)"
   sodipodi:docname="fourBig_active.svg">
  <defs
     id="defs2" />
  <sodipodi:namedview
     id="base"
     pagecolor="#ffffff"
     bordercolor="#666666"
     borderopacity="1.0"
     inkscape:pageopacity="0.0"
     inkscape:pageshadow="2"
     inkscape:zoom="1"
     inkscape:cx="29.392102"
     inkscape:cy="275.76115"
     inkscape:document-units="mm"
     inkscape:current-layer="layer1"
     inkscape:document-rotation="0"
     showgrid="false"
     inkscape:window-width="1853"
     inkscape:window-height="1145"
     inkscape:window-x="67"
     inkscape:window-y="27"
     inkscape:window-maximized="1" />
  <metadata
     id="metadata5">
    <rdf:RDF>
      <cc:Work
         rdf:about="">
        <dc:format>image/svg+xml</dc:format>
        <dc:type
           rdf:resource="http://purl.org/dc/dcmitype/StillImage" />
        <dc:title></dc:title>
      </cc:Work>
    </rdf:RDF>
  </metadata>
  <g
     inkscape:label="Layer 1"
     inkscape:groupmode="layer"
     id="layer1"
     transform="translate(-773.29269,303.22687)">
    <path
       style="fill:#000000;stroke-width:0.352778"
       id="path3052"
       d="" />
    <path
       style="fill:#000000;stroke-width:0.352778"
       id="path3050"
       d="" />
    <path
       style="fill:#000000;stroke-width:0.352778"
       id="path3048"
       d="" />
    <path
       style="fill:#64a420;fill-opacity:1;stroke-width:0.352778"
       d="m 775.32568,-162.81051 c -2.11216,-1.66143 -2.0326,-0.41217 -2.0326,-31.91516 0,-27.60064 0.0279,-28.85484 0.67028,-30.10918 0.36865,-0.71987 1.15598,-1.66605 1.7496,-2.10261 l 1.07933,-0.79375 h 19.58117 19.58118 l 1.29954,1.14102 c 2.36254,2.07433 2.25279,0.52294 2.25279,31.8437 0,30.91581 0.0656,29.86008 -1.97391,31.75026 l -0.95135,0.88168 h -20.18563 c -19.55869,0 -20.21311,-0.0216 -21.0704,-0.69596 z m 56.44444,0 c -2.11216,-1.66143 -2.0326,-0.41217 -2.0326,-31.91516 0,-27.81942 0.0234,-28.84606 0.68523,-30.14348 1.34968,-2.64559 0.13388,-2.50928 22.38223,-2.50928 h 19.91729 l 1.13337,0.95366 c 2.17852,1.8331 2.09577,0.58226 2.09577,31.67828 0,30.91581 0.0656,29.86008 -1.97391,31.75026 l -0.95135,0.88168 h -20.18562 c -19.5587,0 -20.21312,-0.0216 -21.07041,-0.69596 z m 56.20133,-0.23356 c -0.70655,-0.89824 -0.73116,-1.32611 -0.73116,-12.71603 v -11.78652 l 0.86591,-0.86591 0.86591,-0.86591 h 11.98488 11.98487 l 0.73116,0.92952 c 0.707,0.89881 0.73116,1.32424 0.73116,12.87639 0,11.4765 -0.0278,11.97465 -0.70556,12.65242 -0.67822,0.67823 -1.17592,0.70556 -12.85078,0.70556 h -12.14523 z m 0.30004,-38.55445 -1.0312,-1.0312 v -11.86122 -11.86123 l 0.86591,-0.86591 0.86591,-0.86591 h 11.98488 11.98487 l 0.73116,0.92952 c 0.70643,0.89808 0.73116,1.32663 0.73116,12.67115 0,6.45789 -0.0986,11.9986 -0.21914,12.31269 -0.56481,1.47188 -1.67542,1.60331 -13.54881,1.60331 h -11.33355 z m -112.0164,-36.51472 c -0.60221,-0.26215 -1.47533,-1.01 -1.94027,-1.66189 l -0.84535,-1.18525 -0.0942,-29.19469 c -0.0916,-28.39518 -0.0752,-29.23181 0.59704,-30.54959 1.35657,-2.65909 0.13014,-2.52099 22.3882,-2.52099 h 19.91729 l 1.13337,0.95367 c 2.17893,1.83344 2.09577,0.57207 2.09577,31.78784 v 28.53085 l -0.80255,1.51763 c -1.55382,2.93832 -0.68343,2.82853 -22.29889,2.81286 -15.20554,-0.011 -19.27673,-0.11011 -20.15044,-0.49044 z m 56.44444,0 c -0.60221,-0.26215 -1.47533,-1.01 -1.94027,-1.66189 l -0.84535,-1.18525 -0.0942,-29.19469 c -0.0916,-28.39518 -0.0752,-29.23181 0.59704,-30.54959 1.35656,-2.65909 0.13014,-2.52099 22.3882,-2.52099 h 19.91729 l 1.13337,0.95367 c 2.17893,1.83344 2.09577,0.57207 2.09577,31.78784 v 28.53085 l -0.80255,1.51763 c -1.55382,2.93832 -0.68343,2.82853 -22.29889,2.81286 -15.20554,-0.011 -19.27673,-0.11011 -20.15044,-0.49044 z m 55.57196,-1.2325 -1.0312,-1.0312 v -11.86122 -11.86123 l 0.86591,-0.86591 0.86591,-0.86591 h 11.98488 11.98487 l 0.73116,0.92952 c 0.70643,0.89808 0.73116,1.32663 0.73116,12.67115 0,6.45789 -0.0986,11.9986 -0.21914,12.31269 -0.56481,1.47188 -1.67542,1.60331 -13.54881,1.60331 h -11.33355 z m 0,-37.39444 -1.0312,-1.0312 v -11.86123 -11.86122 l 0.86591,-0.86591 0.86591,-0.86591 h 11.98488 11.98487 l 0.73116,0.92952 c 0.70643,0.89808 0.73116,1.32663 0.73116,12.67115 0,6.45789 -0.0986,11.9986 -0.21914,12.31269 -0.56481,1.47188 -1.67542,1.6033 -13.54881,1.6033 h -11.33355 z"
       id="path6405" />
  </g>
</svg>
