<?xml version="1.0" encoding="UTF-8" standalone="no"?>
<svg
   xmlns:dc="http://purl.org/dc/elements/1.1/"
   xmlns:cc="http://creativecommons.org/ns#"
   xmlns:rdf="http://www.w3.org/1999/02/22-rdf-syntax-ns#"
   xmlns:svg="http://www.w3.org/2000/svg"
   xmlns="http://www.w3.org/2000/svg"
   xmlns:sodipodi="http://sodipodi.sourceforge.net/DTD/sodipodi-0.dtd"
   xmlns:inkscape="http://www.inkscape.org/namespaces/inkscape"
   width="28.915627mm"
   height="100.8624mm"
   viewBox="0 0 28.915626 100.86241"
   version="1.1"
   id="svg8"
   inkscape:version="1.0.1 (0767f8302a, 2020-10-17)"
   sodipodi:docname="info2.svg">
  <defs
     id="defs2" />
  <sodipodi:namedview
     id="base"
     pagecolor="#ffffff"
     bordercolor="#666666"
     borderopacity="1.0"
     inkscape:pageopacity="0.0"
     inkscape:pageshadow="2"
     inkscape:zoom="2"
     inkscape:cx="-166.72721"
     inkscape:cy="244.39586"
     inkscape:document-units="mm"
     inkscape:current-layer="layer1"
     inkscape:document-rotation="0"
     showgrid="false"
     inkscape:window-width="1853"
     inkscape:window-height="1145"
     inkscape:window-x="67"
     inkscape:window-y="27"
     inkscape:window-maximized="1" />
  <metadata
     id="metadata5">
    <rdf:RDF>
      <cc:Work
         rdf:about="">
        <dc:format>image/svg+xml</dc:format>
        <dc:type
           rdf:resource="http://purl.org/dc/dcmitype/StillImage" />
        <dc:title></dc:title>
      </cc:Work>
    </rdf:RDF>
  </metadata>
  <g
     inkscape:label="Layer 1"
     inkscape:groupmode="layer"
     id="layer1"
     transform="translate(-502.84986,396.01287)">
    <path
       style="fill:#000000;stroke-width:0.352778"
       id="path3052"
       d="" />
    <path
       style="fill:#000000;stroke-width:0.352778"
       id="path3050"
       d="" />
    <path
       style="fill:#000000;stroke-width:0.352778"
       id="path3048"
       d="" />
    <path
       style="fill:#2064a4;fill-opacity:1;stroke-width:0.352778"
       d="m 505.94564,-295.15847 c -1.67276,0 -3.09578,-1.77656 -3.09578,-3.28101 v -30.02482 -29.70538 c 0,-3.46837 1.13886,-5.75041 4.96409,-5.75041 7.66661,0 12.6887,-0.0299 19.31625,-0.0299 1.92338,0 3.57294,1.08885 3.57294,3.59763 0,1.26041 0.0151,4.70811 0.0151,31.88803 0,27.17992 0.0114,29.27769 0.0114,30.53813 0,1.72489 -0.8995,2.73626 -2.24069,2.73626 -1.17247,0 -1.5133,-0.0175 -11.28848,-0.0175 -9.27115,0.0863 -8.84352,0.0489 -11.25476,0.0489 z m 8.3695,-74.87899 c -6.15507,-1.60373 -10.05901,-6.28669 -10.33875,-12.40184 -0.16914,-3.69727 0.70413,-6.12337 3.17867,-8.83092 2.96827,-3.24775 6.33711,-4.74265 10.68786,-4.74265 3.87704,0 6.90835,1.14681 9.61491,3.63752 2.99971,2.76049 4.3156,5.74187 4.30762,9.75966 -0.008,3.83331 -1.77994,7.35717 -4.96755,9.87683 -3.28585,2.59731 -8.52813,3.7318 -12.48276,2.7014 z"
       id="path5411"
       sodipodi:nodetypes="scccccssssccsccsscssc" />
  </g>
</svg>
